<svg width="114" height="66" viewBox="0 0 114 66" fill="none" xmlns="http://www.w3.org/2000/svg">
<g clip-path="url(#clip0_1336_730)">
<path d="M41.2223 65.2859C40.263 65.0458 39.2792 64.8297 38.32 64.5656C38.1232 64.5175 37.951 64.3974 37.7051 64.2533C38.0248 63.9412 38.2954 63.653 38.5906 63.3888C39.8695 62.2121 41.2223 61.1075 42.452 59.8828C44.2475 58.0577 45.3543 55.8244 45.5756 53.2069C45.8216 50.085 45.0838 47.2274 43.3867 44.6819C42.3536 43.145 41.1239 41.7281 39.9679 40.2633C39.8203 40.0711 39.6482 39.8791 39.5251 39.5909C39.9187 39.735 40.3368 39.855 40.7303 40.0471C44.4197 41.7761 47.4696 44.2736 49.5602 47.8997C50.3718 49.2926 50.8883 50.8054 51.0359 52.4624C51.0359 52.5585 51.0851 52.6546 51.1097 52.7506V54.4076C51.0851 54.5036 51.0359 54.5757 51.0359 54.6717C50.8391 56.833 50.1505 58.8022 48.9699 60.5792C47.4941 62.8125 45.5756 64.4455 42.9932 65.0699C42.5504 65.1659 42.0831 65.2139 41.6158 65.2859H41.2223Z" fill="#2A3CAC"/>
<path d="M39.427 41.9687C40.5584 42.8092 41.37 43.8899 42.0833 45.0665C43.3376 47.2037 44.1493 49.5091 44.1493 52.0306C44.1739 53.9037 43.7066 55.6327 42.7228 57.1696C41.1979 59.595 39.3532 61.6843 36.9182 63.1491C35.172 64.1817 33.3273 64.758 31.3104 64.5659C29.4657 64.3979 27.8671 63.6774 26.7848 62.0444C25.3337 59.8832 25.8748 56.9775 28.0638 55.6807C29.0722 55.0804 30.2036 54.6722 31.3104 54.3119C33.2289 53.6876 35.0982 52.9431 36.6968 51.6224C38.4432 50.2055 39.5991 48.3805 39.8451 46.0271C39.9926 44.7063 39.7959 43.4336 39.4761 42.1608C39.4761 42.1128 39.4516 42.0407 39.427 41.9687Z" fill="#2A3CAC"/>
<path d="M34.3349 23.2144C33.8676 22.7341 33.4494 22.3738 33.105 21.9416C30.8423 19.18 29.5633 16.0342 29.7601 12.336C29.883 10.1267 30.6701 8.18152 31.9491 6.45254C33.9659 3.71494 36.4993 1.67374 39.7458 0.809234C41.8857 0.256908 43.9517 0.497049 45.8456 1.79381C47.5672 2.9705 48.2313 4.77155 47.7148 6.69268C47.4935 7.48514 47.0754 8.13352 46.4359 8.56575C45.5259 9.16612 44.542 9.71842 43.5582 10.1987C42.1808 10.8471 40.7543 11.3514 39.4016 11.9998C38.5161 12.408 37.6799 12.9364 36.8928 13.5367C34.6054 15.2897 33.7938 17.7151 34.0151 20.5968C34.0889 21.4133 34.2119 22.2298 34.3349 23.2144Z" fill="#2A3CAC"/>
<path d="M25.9234 30.0822C25.2347 30.1303 24.5214 30.2263 23.8328 30.2504C19.8729 30.3703 16.1097 29.5779 12.6172 27.5367C11.8547 27.1045 11.1168 26.6242 10.4282 26.1199C9.93625 25.7837 9.44438 25.3995 9.05085 24.9432C7.27994 22.95 6.05016 20.6207 5.36149 18.0272C4.64821 15.4337 5.70582 13.1283 8.01779 11.9276C9.98543 10.919 12.0515 10.7509 14.1421 11.4473C16.3311 12.1917 17.6101 13.9928 17.6101 16.3702C17.6101 17.4028 17.4133 18.4354 17.3149 19.492C16.946 23.0701 18.2988 25.7837 21.2256 27.6088C22.4554 28.3772 23.8328 28.9055 25.1363 29.5299C25.4069 29.674 25.702 29.794 25.9726 29.9381C25.948 29.9861 25.948 30.0342 25.9234 30.0822Z" fill="#2A3CAC"/>
<path d="M12.4937 48.9569C9.46846 48.9089 6.54158 48.4526 3.78687 47.0838C3.17198 46.7716 2.58169 46.3634 2.04059 45.9551C0.269706 44.6584 -0.320588 41.1763 2.13897 39.3752C4.77069 37.4301 7.55 37.214 10.4031 38.7989C11.3377 39.3272 12.2478 39.9276 13.1578 40.4559C17.5604 43.0014 21.9876 43.1215 26.464 40.6721C26.9805 40.3838 27.5462 40.1437 28.0873 39.9036C28.2103 39.8555 28.4809 39.8795 28.53 39.9516C28.6038 40.0717 28.6038 40.3118 28.53 40.4559C26.5132 43.9139 23.6109 46.2913 19.9708 47.6601C17.5358 48.5486 15.0517 48.9569 12.4937 48.9569Z" fill="#2A3CAC"/>
<path d="M3.73816 17.6184C3.93492 18.1707 4.15628 18.7231 4.37764 19.2754C6.12393 24.2463 9.24753 27.7763 14.1175 29.5534C16.7738 30.514 19.4793 30.9462 22.2832 30.9702C24.3 30.9702 26.2923 30.9943 28.3092 30.9943C28.4813 30.9943 28.6534 30.9943 28.8502 31.1144C28.6781 31.2584 28.5059 31.4265 28.3092 31.4986C26.9564 32.0269 25.6282 32.6272 24.2508 33.0114C22.6029 33.4677 20.9305 33.8519 19.2334 34.044C15.8638 34.4523 12.5433 34.0681 9.39512 32.6753C7.20613 31.7147 5.1401 30.586 3.39382 28.881C1.99187 27.5363 0.786691 25.9994 0.270181 24.0302C0.0488204 23.1897 -0.0495618 22.2771 0.0242248 21.4127C0.171798 19.4675 1.77051 17.8826 3.73816 17.6184Z" fill="#2A3CAC"/>
<path d="M36.0571 0.856552C35.6635 1.19275 35.2946 1.57697 34.8765 1.86514C33.1056 3.08986 31.6545 4.65077 30.4001 6.42782C28.0389 9.76575 27.6208 13.3679 29.0227 17.2342C30.1541 20.356 32.048 22.9495 34.2124 25.3269C34.3107 25.447 34.4091 25.5671 34.6059 25.7591C34.36 25.6871 34.2124 25.639 34.0894 25.591C30.2279 23.838 26.9567 21.3166 24.5709 17.6424C23.4395 15.9133 22.7755 13.9682 22.7017 11.879C22.6525 10.2941 23.0214 8.80523 23.5625 7.34035C24.079 5.94754 24.7431 4.62676 25.6531 3.47408C26.9075 1.88915 28.3586 0.61641 30.3508 0.160143C31.7283 -0.15204 33.081 0.0400721 34.4583 0.328241C34.9748 0.448312 35.4913 0.568382 36.0078 0.688452L36.0571 0.856552Z" fill="#2A3CAC"/>
<path d="M4.45126 48.884C6.22213 49.2442 7.94385 49.5564 9.66548 49.9646C13.2565 50.8292 16.7244 50.3969 20.1924 49.1242C22.6028 48.2116 24.7918 46.9869 26.6611 45.1378C28.309 43.5049 29.8584 41.7518 30.7439 39.4945C30.8915 39.1103 31.1375 38.7501 31.3588 38.3899C31.4326 38.2698 31.6048 38.1977 31.7277 38.1017L31.8999 38.1737C31.7277 39.4705 31.6539 40.7912 31.408 42.0881C30.3258 47.8754 26.907 51.5495 21.6435 53.4947C18.7167 54.5753 15.6914 55.1757 12.5678 55.1276C10.9445 55.1036 9.34575 54.8876 7.84543 54.2391C5.95158 53.3987 4.7464 52.0058 4.47585 49.8206C4.45126 49.6525 4.45126 49.4603 4.45126 49.2923C4.40206 49.1722 4.42665 49.0521 4.45126 48.884Z" fill="#2A3CAC"/>
<path d="M47.4198 26.143C49.1661 26.5513 50.3958 27.0316 51.1091 27.5839C52.1175 28.3764 52.634 29.433 52.634 30.7058C52.634 32.0506 52.0684 33.1792 50.9615 34.0677C49.5842 35.1484 47.6165 35.6767 45.0094 35.6767H35.6631V35.1964C36.5239 35.1964 37.0896 35.1244 37.3848 34.9562C37.6799 34.8121 37.9013 34.596 38.0243 34.3559C38.1472 34.1158 38.1965 33.4914 38.1965 32.5308V20.86C38.1965 19.8994 38.1472 19.2751 38.0243 19.0349C37.9013 18.7948 37.6799 18.5786 37.3848 18.4345C37.0651 18.2905 36.4993 18.2185 35.6631 18.2185V17.7382H44.4929C46.6081 17.7382 48.0838 17.9302 48.9693 18.2905C49.8547 18.6507 50.5434 19.203 51.0353 19.9234C51.5518 20.6438 51.7978 21.4363 51.7978 22.2528C51.7978 23.1173 51.4781 23.8858 50.8385 24.5582C50.1744 25.2065 49.0431 25.7348 47.4198 26.143ZM42.4761 26.8155V32.5789L42.4515 33.2512C42.4515 33.7315 42.5745 34.0918 42.8204 34.3318C43.0664 34.572 43.4353 34.6921 43.9272 34.6921C44.6405 34.6921 45.3291 34.524 45.9194 34.2118C46.5344 33.8996 47.0017 33.4433 47.3214 32.843C47.6411 32.2426 47.8133 31.5703 47.8133 30.8498C47.8133 30.0094 47.6165 29.2649 47.223 28.5926C46.8295 27.9201 46.2884 27.4639 45.5751 27.1997C44.8864 26.9356 43.8535 26.8155 42.4761 26.8155ZM42.4761 25.7829C43.755 25.7829 44.7142 25.6388 45.3291 25.3506C45.9441 25.0624 46.4114 24.6782 46.7311 24.1499C47.0509 23.6456 47.223 22.9732 47.223 22.1807C47.223 21.3883 47.0509 20.7399 46.7311 20.2356C46.4114 19.7313 45.9441 19.3471 45.3538 19.0829C44.7635 18.8188 43.8042 18.6987 42.4761 18.6987V25.7829Z" fill="#2A3CAC"/>
<path d="M66.7759 23.2856V32.9873C66.7759 33.9238 66.8743 34.5242 67.0464 34.7643C67.2187 35.0045 67.5876 35.1485 68.1532 35.1965V35.6768H62.9882V34.0198C62.3733 34.7162 61.783 35.2446 61.1681 35.5568C60.5532 35.8689 59.8891 36.0371 59.1267 36.0371C58.4134 36.0371 57.7739 35.8209 57.2082 35.3887C56.6425 34.9564 56.2736 34.4521 56.0768 33.8758C55.8801 33.2994 55.7817 32.2908 55.7817 30.874V25.9511C55.7817 25.0146 55.6833 24.4382 55.5112 24.1981C55.3389 23.9579 54.97 23.8139 54.4043 23.7419V23.2616H59.5694V31.7385C59.5694 32.627 59.6186 33.2034 59.6924 33.4435C59.7662 33.7076 59.9138 33.8998 60.1105 34.0198C60.3073 34.1639 60.5041 34.2119 60.75 34.2119C61.0697 34.2119 61.3649 34.1399 61.6355 33.9719C62.0044 33.7317 62.4225 33.2754 62.939 32.579V25.9511C62.939 25.0146 62.8406 24.4382 62.6685 24.1981C62.4962 23.9579 62.1273 23.8139 61.5617 23.7419V23.2616H66.7759V23.2856Z" fill="#2A3CAC"/>
<path d="M75.0157 18.7467V23.2854H78.0162V24.6062H75.0157V32.2426C75.0157 32.963 75.0403 33.4193 75.114 33.6354C75.1878 33.8516 75.3108 34.0196 75.483 34.1397C75.6551 34.2598 75.8027 34.3319 75.9503 34.3319C76.5402 34.3319 77.1064 33.8996 77.6225 33.011L78.0412 33.2993C77.3033 35.0042 76.1222 35.8448 74.4745 35.8448C73.6629 35.8448 72.9989 35.6286 72.4331 35.1964C71.8674 34.7641 71.5231 34.2598 71.3755 33.7315C71.2772 33.4193 71.228 32.6268 71.228 31.2821V24.5822H69.5801V24.1259C70.7114 23.3334 71.6952 22.517 72.4823 21.6524C73.294 20.7879 73.9827 19.8273 74.573 18.7467H75.0157Z" fill="#2A3CAC"/>
<path d="M86.2316 33.8273C84.682 35.172 83.3048 35.8204 82.0744 35.8204C81.3615 35.8204 80.7467 35.5802 80.2793 35.124C79.7876 34.6677 79.5664 34.0914 79.5664 33.371C79.5664 32.4344 79.9844 31.5699 80.8204 30.8255C81.6564 30.081 83.4766 29.0724 86.2559 27.7997V26.551C86.2559 25.6144 86.2065 25.0141 86.1085 24.7739C86.0104 24.5338 85.8136 24.3176 85.518 24.1496C85.2231 23.9574 84.9031 23.8854 84.5345 23.8854C83.944 23.8854 83.4523 24.0055 83.0829 24.2696C82.8374 24.4377 82.7386 24.6059 82.7386 24.8219C82.7386 25.0141 82.8618 25.2302 83.108 25.5184C83.4523 25.9026 83.624 26.2628 83.624 26.623C83.624 27.0553 83.4523 27.4155 83.1323 27.7277C82.8124 28.0398 82.37 28.184 81.8289 28.184C81.2635 28.184 80.771 28.0158 80.4024 27.6797C80.0087 27.3434 79.8362 26.9592 79.8362 26.5029C79.8362 25.8786 80.0824 25.2542 80.5992 24.6779C81.1153 24.1016 81.8289 23.6453 82.7637 23.3571C83.6978 23.0449 84.6326 22.9008 85.6411 22.9008C86.8464 22.9008 87.8056 23.141 88.4941 23.6453C89.2078 24.1496 89.6501 24.6779 89.8469 25.2782C89.97 25.6385 90.0438 26.5029 90.0438 27.8237V32.6265C90.0438 33.2029 90.0681 33.539 90.1175 33.6831C90.1669 33.8273 90.2406 33.9473 90.3143 34.0193C90.4124 34.0914 90.5112 34.1154 90.6343 34.1154C90.8798 34.1154 91.1017 33.9473 91.3472 33.6351L91.7652 33.9473C91.3228 34.5957 90.8554 35.0759 90.3637 35.3642C89.8712 35.6523 89.3301 35.7964 88.7153 35.7964C88.0024 35.7964 87.437 35.6283 87.0182 35.2921C86.5759 35.0039 86.3296 34.4996 86.2316 33.8273ZM86.2316 32.8667V28.7123C85.1243 29.3366 84.3126 30.009 83.7966 30.7294C83.4523 31.2097 83.2554 31.69 83.2554 32.1703C83.2554 32.5785 83.4029 32.9387 83.6978 33.2509C83.9197 33.491 84.2389 33.6111 84.6576 33.6111C85.1243 33.6111 85.6411 33.371 86.2316 32.8667Z" fill="#2A3CAC"/>
<path d="M55.3884 45.3548L55.5852 45.4989C55.3146 46.0032 54.9704 46.3634 54.5768 46.6036C54.1833 46.8437 53.7405 46.9638 53.2978 46.9638C52.5354 46.9638 51.9205 46.6756 51.4778 46.1233C51.0104 45.571 50.7891 44.8745 50.7891 44.1061C50.7891 43.3376 50.9858 42.6652 51.404 42.0889C51.8958 41.3925 52.6092 41.0323 53.47 41.0323C54.0603 41.0323 54.5276 41.1763 54.8719 41.4646C55.2163 41.7527 55.3884 42.0889 55.3884 42.4491C55.3884 42.6652 55.3146 42.8573 55.1671 43.0015C55.0195 43.1455 54.8473 43.1935 54.6014 43.1935C54.3554 43.1935 54.1587 43.1215 54.0111 42.9534C53.8635 42.8093 53.7651 42.5212 53.716 42.1129C53.6913 41.8728 53.6422 41.6806 53.5438 41.5846C53.4454 41.4886 53.347 41.4405 53.224 41.4405C53.0273 41.4405 52.8551 41.5366 52.7322 41.7527C52.5108 42.0649 52.4124 42.5212 52.4124 43.1695C52.4124 43.6978 52.4861 44.2021 52.6584 44.6824C52.8305 45.1627 53.0764 45.5229 53.3716 45.763C53.593 45.9312 53.8635 46.0272 54.1587 46.0272C54.3554 46.0272 54.5522 45.9792 54.7243 45.8831C54.9211 45.787 55.1425 45.619 55.3884 45.3548Z" fill="#2A3CAC"/>
<path d="M58.5858 41.0323C59.0778 41.0323 59.5451 41.1523 59.9878 41.4165C60.406 41.6566 60.7502 42.0169 60.9716 42.4972C61.193 42.9534 61.316 43.4577 61.316 44.01C61.316 44.8025 61.1192 45.4749 60.7011 46.0032C60.2092 46.6516 59.5205 46.9638 58.635 46.9638C57.7742 46.9638 57.1101 46.6756 56.6428 46.0753C56.1755 45.4749 55.9541 44.8025 55.9541 44.0341C55.9541 43.2415 56.2 42.5452 56.6674 41.9448C57.1101 41.3445 57.7496 41.0323 58.5858 41.0323ZM58.6105 41.4646C58.4137 41.4646 58.2169 41.5366 58.0693 41.7046C57.9217 41.8488 57.8234 42.1609 57.7742 42.6172C57.725 43.0735 57.7004 43.6978 57.7004 44.5143C57.7004 44.9466 57.725 45.3308 57.7742 45.715C57.8234 46.0032 57.9217 46.2193 58.0693 46.3634C58.2169 46.5075 58.3891 46.5796 58.5613 46.5796C58.7334 46.5796 58.9056 46.5315 59.0285 46.4354C59.1761 46.2913 59.2991 46.0993 59.3483 45.8591C59.4221 45.4749 59.4713 44.7064 59.4713 43.5538C59.4713 42.8814 59.4221 42.4011 59.3483 42.1609C59.2745 41.8968 59.1516 41.7287 59.004 41.6086C58.9302 41.5126 58.7826 41.4646 58.6105 41.4646Z" fill="#2A3CAC"/>
<path d="M64.0955 41.2003V41.9208C64.3906 41.6086 64.6612 41.3925 64.9318 41.2484C65.2023 41.1043 65.4974 41.0323 65.7926 41.0323C66.1615 41.0323 66.4813 41.1283 66.7273 41.3445C66.9732 41.5366 67.1453 41.8007 67.2191 42.0889C67.2929 42.305 67.3176 42.7613 67.3176 43.4097V45.595C67.3176 46.0272 67.3667 46.2913 67.4405 46.3874C67.5143 46.4835 67.6865 46.5555 67.9324 46.5796V46.7956H65.0301V46.5796C65.2515 46.5555 65.3991 46.4595 65.4974 46.3154C65.5712 46.2193 65.5959 45.9792 65.5959 45.571V43.0735C65.5959 42.6172 65.5712 42.329 65.5467 42.2089C65.5221 42.0889 65.4483 41.9929 65.3499 41.9208C65.2515 41.8488 65.1532 41.8247 65.0547 41.8247C64.7104 41.8247 64.3661 42.0649 64.0709 42.5692V45.571C64.0709 45.9792 64.1201 46.2433 64.1939 46.3634C64.2677 46.4835 64.4153 46.5555 64.6366 46.5796V46.7956H61.7344V46.5796C61.9803 46.5555 62.1524 46.4835 62.2509 46.3634C62.3247 46.2673 62.3492 46.0272 62.3492 45.595V42.4491C62.3492 42.0169 62.3 41.7527 62.2262 41.6566C62.1525 41.5606 61.9803 41.4886 61.7344 41.4646V41.2484H64.0955V41.2003Z" fill="#2A3CAC"/>
<path d="M71.9658 41.0563L72.0642 42.9534H71.8674C71.6214 42.3771 71.351 41.9929 71.1049 41.8007C70.8344 41.5846 70.5638 41.4886 70.2933 41.4886C70.1211 41.4886 69.9735 41.5366 69.8752 41.6566C69.7522 41.7767 69.703 41.8968 69.703 42.0409C69.703 42.1369 69.7522 42.257 69.826 42.3531C69.949 42.5212 70.3179 42.7853 70.9328 43.1935C71.5231 43.6018 71.9166 43.938 72.1134 44.2021C72.3101 44.4903 72.4085 44.7785 72.4085 45.1387C72.4085 45.4509 72.3348 45.763 72.1626 46.0512C72.015 46.3394 71.769 46.5796 71.4985 46.7476C71.2034 46.9157 70.8836 46.9878 70.5393 46.9878C70.2687 46.9878 69.8998 46.9157 69.4325 46.7476C69.3095 46.6996 69.2357 46.6756 69.1865 46.6756C69.0635 46.6756 68.9405 46.7716 68.8422 46.9638H68.6454L68.547 44.9466H68.7438C68.916 45.4749 69.1865 45.8591 69.5063 46.1233C69.826 46.3874 70.1211 46.5075 70.4163 46.5075C70.6131 46.5075 70.7606 46.4595 70.9082 46.3394C71.0311 46.2193 71.1049 46.0753 71.1049 45.9071C71.1049 45.715 71.0558 45.547 70.9328 45.4028C70.8098 45.2587 70.5393 45.0427 70.1211 44.7785C69.5063 44.3462 69.0881 44.0341 68.916 43.8179C68.6454 43.4817 68.5225 43.1215 68.5225 42.7373C68.5225 42.305 68.67 41.9208 68.9897 41.5606C69.2849 41.2003 69.7276 41.0323 70.3179 41.0323C70.6376 41.0323 70.9328 41.1043 71.2279 41.2484C71.3263 41.2964 71.4247 41.3445 71.4985 41.3445C71.5723 41.3445 71.6214 41.3204 71.6707 41.2964C71.7199 41.2724 71.7937 41.1763 71.892 41.0323H71.9658V41.0563Z" fill="#2A3CAC"/>
<path d="M75.1144 39.159V41.2001H76.4672V41.8005H75.1144V45.2585C75.1144 45.5707 75.1391 45.7868 75.1636 45.8829C75.1882 45.979 75.2374 46.051 75.3358 46.0991C75.4096 46.1471 75.4833 46.1951 75.5571 46.1951C75.8277 46.1951 76.0735 46.003 76.3197 45.5947L76.4915 45.7148C76.1723 46.4833 75.6309 46.8675 74.8931 46.8675C74.5242 46.8675 74.229 46.7714 73.983 46.5793C73.7371 46.3872 73.565 46.1711 73.4912 45.9069C73.4419 45.7628 73.442 45.4026 73.442 44.8023V41.8005H72.7041V41.5844C73.2206 41.2242 73.6633 40.864 74.0077 40.4558C74.3766 40.0715 74.6963 39.6392 74.9423 39.1349H75.1144V39.159Z" fill="#2A3CAC"/>
<path d="M79.4932 41.2003V42.4731C79.8618 41.8968 80.2061 41.5126 80.501 41.3204C80.7966 41.1283 81.0672 41.0323 81.3378 41.0323C81.5589 41.0323 81.7558 41.1043 81.8789 41.2484C82.0263 41.3925 82.0757 41.5846 82.0757 41.8247C82.0757 42.0889 82.002 42.305 81.8789 42.4491C81.7558 42.5932 81.5832 42.6652 81.3864 42.6652C81.1652 42.6652 80.9935 42.5932 80.821 42.4731C80.6735 42.329 80.5755 42.257 80.5504 42.257C80.501 42.233 80.4524 42.233 80.403 42.233C80.2798 42.233 80.1818 42.281 80.0587 42.353C79.8862 42.4972 79.7638 42.6892 79.6893 42.9294C79.567 43.3136 79.4932 43.7458 79.4932 44.2021V45.4989V45.8351C79.4932 46.0512 79.5176 46.2193 79.5419 46.2673C79.5913 46.3634 79.665 46.4595 79.7638 46.5075C79.8619 46.5555 80.0344 46.5796 80.2555 46.6036V46.8196H77.1562V46.6036C77.4025 46.5796 77.5742 46.5075 77.673 46.4114C77.7711 46.2913 77.7962 46.0032 77.7962 45.5229V42.4251C77.7962 42.1129 77.7711 41.8968 77.7468 41.8247C77.6974 41.7046 77.648 41.6326 77.5742 41.5846C77.5005 41.5366 77.3531 41.4886 77.1562 41.4886V41.2724H79.4932V41.2003Z" fill="#2A3CAC"/>
<path d="M88.3223 41.1998V45.5704C88.3223 46.0027 88.3717 46.2668 88.4454 46.3628C88.5192 46.4589 88.6917 46.531 88.9372 46.555V46.7711H86.6009V46.0267C86.3303 46.3388 86.0598 46.579 85.7892 46.7231C85.5187 46.8671 85.1987 46.9392 84.8795 46.9392C84.5595 46.9392 84.2639 46.8431 84.0184 46.6511C83.7722 46.4589 83.6004 46.2428 83.5016 45.9786C83.4279 45.7145 83.3785 45.2582 83.3785 44.6099V42.4005C83.3785 41.9683 83.3299 41.7041 83.2561 41.6081C83.1824 41.512 83.0099 41.44 82.7637 41.416V41.1998H85.1007V45.0181C85.1007 45.4263 85.125 45.6665 85.1501 45.7865C85.1987 45.9066 85.2481 45.9786 85.3218 46.0507C85.3955 46.0987 85.4944 46.1468 85.6167 46.1468C85.7649 46.1468 85.8873 46.0987 86.0104 46.0267C86.1829 45.9306 86.3797 45.7145 86.6009 45.4023V42.4005C86.6009 41.9683 86.5515 41.7041 86.4778 41.6081C86.4041 41.512 86.2316 41.44 85.9861 41.416V41.1998H88.3223Z" fill="#2A3CAC"/>
<path d="M94.0526 45.3548L94.2495 45.4989C93.9789 46.0032 93.6346 46.3634 93.241 46.6036C92.8473 46.8437 92.405 46.9638 91.9619 46.9638C91.1996 46.9638 90.5848 46.6756 90.1417 46.1233C89.6743 45.571 89.4531 44.8745 89.4531 44.1061C89.4531 43.3376 89.65 42.6652 90.068 42.0889C90.5597 41.3925 91.2733 41.0323 92.1344 41.0323C92.7242 41.0323 93.1916 41.1763 93.5358 41.4646C93.8801 41.7527 94.0526 42.0889 94.0526 42.4491C94.0526 42.6652 93.9789 42.8573 93.8315 43.0015C93.684 43.1455 93.5115 43.1935 93.2653 43.1935C93.0198 43.1935 92.823 43.1215 92.6755 42.9534C92.5273 42.8093 92.4293 42.5212 92.3799 42.1129C92.3556 41.8728 92.3062 41.6806 92.2081 41.5846C92.1093 41.4886 92.0113 41.4405 91.8882 41.4405C91.6913 41.4405 91.5196 41.5366 91.3964 41.7527C91.1753 42.0649 91.0765 42.5212 91.0765 43.1695C91.0765 43.6978 91.1502 44.2021 91.3227 44.6824C91.4945 45.1627 91.7407 45.5229 92.0356 45.763C92.2568 45.9312 92.5273 46.0272 92.823 46.0272C93.0198 46.0272 93.2166 45.9792 93.3884 45.8831C93.6096 45.787 93.8064 45.619 94.0526 45.3548Z" fill="#2A3CAC"/>
<path d="M96.8328 39.159V41.2001H98.1856V41.8005H96.8328V45.2585C96.8328 45.5707 96.8579 45.7868 96.8822 45.8829C96.9073 45.979 96.9559 46.051 97.0547 46.0991C97.1285 46.1471 97.2022 46.1951 97.2759 46.1951C97.5465 46.1951 97.7927 46.003 98.0382 45.5947L98.2107 45.7148C97.8907 46.4833 97.3496 46.8675 96.6117 46.8675C96.2431 46.8675 95.9474 46.7714 95.7019 46.5793C95.4557 46.3872 95.2839 46.1711 95.2102 45.9069C95.1608 45.7628 95.1608 45.4026 95.1608 44.8023V41.8005H94.4229V41.5844C94.9397 41.2242 95.382 40.864 95.7263 40.4558C96.0956 40.0715 96.4148 39.6392 96.6611 39.1349H96.8328V39.159Z" fill="#2A3CAC"/>
<path d="M101.087 41.1998V45.6424C101.087 46.0266 101.137 46.2908 101.235 46.4108C101.334 46.5309 101.505 46.5789 101.776 46.6029V46.8191H98.6768V46.6029C98.923 46.6029 99.1198 46.5309 99.243 46.3868C99.3167 46.2908 99.3661 46.0506 99.3661 45.6664V42.4005C99.3661 42.0163 99.3167 41.7521 99.2179 41.6321C99.1198 41.512 98.9473 41.4639 98.6768 41.4399V41.2238H101.087V41.1998ZM100.226 38.5102C100.497 38.5102 100.718 38.6063 100.891 38.7743C101.063 38.9665 101.161 39.1826 101.161 39.4227C101.161 39.6869 101.063 39.903 100.891 40.0711C100.694 40.2392 100.473 40.3352 100.226 40.3352C99.9558 40.3352 99.7347 40.2392 99.5622 40.0711C99.3904 39.903 99.2916 39.6629 99.2916 39.4227C99.2916 39.1586 99.3904 38.9425 99.5622 38.7743C99.7347 38.5823 99.9558 38.5102 100.226 38.5102Z" fill="#2A3CAC"/>
<path d="M104.629 41.0323C105.121 41.0323 105.588 41.1523 106.031 41.4165C106.449 41.6566 106.793 42.0169 107.015 42.4972C107.236 42.9534 107.359 43.4577 107.359 44.01C107.359 44.8025 107.162 45.4749 106.744 46.0032C106.252 46.6516 105.564 46.9638 104.678 46.9638C103.817 46.9638 103.153 46.6756 102.686 46.0753C102.219 45.4749 101.997 44.8025 101.997 44.0341C101.997 43.2415 102.243 42.5452 102.711 41.9448C103.153 41.3445 103.817 41.0323 104.629 41.0323ZM104.653 41.4646C104.457 41.4646 104.26 41.5366 104.112 41.7046C103.965 41.8488 103.867 42.1609 103.817 42.6172C103.768 43.0735 103.744 43.6978 103.744 44.5143C103.744 44.9466 103.768 45.3308 103.817 45.715C103.867 46.0032 103.965 46.2193 104.112 46.3634C104.26 46.5075 104.432 46.5796 104.605 46.5796C104.776 46.5796 104.949 46.5315 105.072 46.4354C105.219 46.2913 105.343 46.0993 105.391 45.8591C105.465 45.4749 105.514 44.7064 105.514 43.5538C105.514 42.8814 105.465 42.4011 105.391 42.1609C105.318 41.8968 105.194 41.7287 105.047 41.6086C104.973 41.5126 104.826 41.4646 104.653 41.4646Z" fill="#2A3CAC"/>
<path d="M110.162 41.2003V41.9208C110.458 41.6086 110.729 41.3925 110.999 41.2484C111.27 41.1043 111.565 41.0323 111.859 41.0323C112.229 41.0323 112.549 41.1283 112.794 41.3445C113.04 41.5366 113.212 41.8007 113.286 42.0889C113.36 42.305 113.385 42.7613 113.385 43.4097V45.595C113.385 46.0272 113.434 46.2913 113.508 46.3874C113.582 46.4835 113.753 46.5555 114 46.5796V46.7956H111.097V46.5796C111.318 46.5555 111.466 46.4595 111.565 46.3154C111.638 46.2193 111.663 45.9792 111.663 45.571V43.0735C111.663 42.6172 111.638 42.329 111.614 42.2089C111.589 42.0889 111.515 41.9929 111.417 41.9208C111.318 41.8488 111.22 41.8247 111.122 41.8247C110.777 41.8247 110.433 42.0649 110.138 42.5692V45.571C110.138 45.9792 110.187 46.2433 110.261 46.3634C110.335 46.4835 110.482 46.5555 110.703 46.5796V46.7956H107.802V46.5796C108.047 46.5555 108.22 46.4835 108.318 46.3634C108.392 46.2673 108.417 46.0272 108.417 45.595V42.4491C108.417 42.0169 108.367 41.7527 108.293 41.6566C108.22 41.5606 108.047 41.4886 107.802 41.4646V41.2484H110.162V41.2003Z" fill="#2A3CAC"/>
</g>
<defs>
<clipPath id="clip0_1336_730">
<rect width="114" height="66" fill="white"/>
</clipPath>
</defs>
</svg>
