<svg width="114" height="104" viewBox="0 0 114 104" fill="none" xmlns="http://www.w3.org/2000/svg">
<path d="M31.0219 0.179688H30.8775C29.3607 0.179688 28.1328 1.40203 28.1328 2.91197V58.0251C28.1328 59.535 29.3607 60.7574 30.8775 60.7574H31.0219C32.5387 60.7574 33.7666 59.535 33.7666 58.0251V2.91197C33.7666 1.40203 32.5387 0.179688 31.0219 0.179688Z" fill="white"/>
<path d="M39.436 3.91858H39.2915C37.7747 3.91858 36.5469 5.14092 36.5469 6.65087V58.025C36.5469 59.535 37.7747 60.7573 39.2915 60.7573H39.436C40.9528 60.7573 42.1806 59.535 42.1806 58.025V6.65087C42.1806 5.14092 40.9528 3.91858 39.436 3.91858Z" fill="white"/>
<path d="M47.8871 5.75208H47.7427C46.2259 5.75208 44.998 6.97441 44.998 8.48436V43.1053C44.998 44.6153 46.2259 45.8376 47.7427 45.8376H47.8871C49.4039 45.8376 50.6318 44.6153 50.6318 43.1053V8.48436C50.6318 7.01037 49.3678 5.75208 47.8871 5.75208Z" fill="white"/>
<path d="M56.7348 9.02368H56.5903C55.0736 9.02368 53.8457 10.246 53.8457 11.756V48.2104C53.8457 49.7204 55.0736 50.9427 56.5903 50.9427H56.7348C58.2516 50.9427 59.4795 49.7204 59.4795 48.2104V11.756C59.4795 10.246 58.2516 9.02368 56.7348 9.02368Z" fill="#FFCE12"/>
<path d="M65.6547 5.75208H65.5103C63.9935 5.75208 62.7656 6.97441 62.7656 8.48436V43.1053C62.7656 44.6153 63.9935 45.8376 65.5103 45.8376H65.6547C67.1715 45.8376 68.3994 44.6153 68.3994 43.1053V8.48436C68.3633 7.01037 67.1354 5.75208 65.6547 5.75208Z" fill="#FFCE12"/>
<path d="M74.0698 3.91858H73.9253C72.4085 3.91858 71.1807 5.14092 71.1807 6.65087V58.025C71.1807 59.535 72.4085 60.7573 73.9253 60.7573H74.0698C75.5865 60.7573 76.8144 59.535 76.8144 58.025V6.61491C76.8144 5.14092 75.5865 3.91858 74.0698 3.91858Z" fill="#FFCE12"/>
<path d="M82.52 0.179688H82.3755C80.8587 0.179688 79.6309 1.40203 79.6309 2.91197V57.0903C79.6309 58.6003 80.8587 59.8226 82.3755 59.8226H82.52C84.0368 59.8226 85.2646 58.6003 85.2646 57.0903V2.91197C85.2285 1.40203 84.0006 0.179688 82.52 0.179688Z" fill="#FFCE12"/>
<path d="M23.0767 73.0886H21.9572C21.7405 73.0886 21.5961 73.0886 21.5961 73.0886H21.5238L21.271 73.9874C21.0905 74.5986 19.1042 81.1417 18.0569 84.4851C17.443 86.4984 16.7929 88.5117 16.1068 90.7047C15.9623 90.2373 15.854 89.9497 15.7817 89.6981C14.265 84.5211 12.7121 79.3441 11.2314 74.1672L10.9425 73.1246H9.3896C8.84789 73.1246 8.27007 73.1246 7.72837 73.1246C5.16429 73.1246 2.60021 73.1246 0.0361328 73.1605C0.0361328 82.9752 0.0361328 92.7898 0.0361328 102.569C1.98628 102.569 3.90031 102.569 5.92268 102.569C5.92268 94.6234 5.92268 86.7501 5.92268 78.9127C6.13936 79.0206 6.21159 79.2003 6.28382 79.3441C8.27007 85.9591 10.2563 92.6101 12.2426 99.2251L12.676 100.663L13.2538 102.569H18.0208L18.2375 101.814L19.032 99.2251C21.0182 92.646 23.0406 86.067 25.063 79.4879C25.1352 79.2363 25.2435 78.9846 25.3158 78.733C25.388 78.7689 25.4602 78.7689 25.5325 78.8049C25.5325 86.6782 25.5325 94.5874 25.5325 102.497C27.8799 102.497 30.1189 102.497 32.3941 102.497C32.3941 92.682 32.3941 82.9392 32.3941 73.1605C32.1052 73.1605 31.8524 73.1246 31.6357 73.1246C29.3966 73.0886 25.2797 73.0886 23.0767 73.0886Z" fill="white"/>
<path d="M71.7579 97.8949C69.4467 97.8949 68.9411 97.3916 68.905 95.1266C68.905 92.8617 68.905 90.6327 68.905 88.3678C68.905 87.505 68.905 86.6422 68.905 85.6715C70.5301 85.6715 72.0469 85.6715 73.5636 85.6715C73.5636 83.9458 73.5636 82.364 73.5636 80.6383C71.9746 80.6383 70.4578 80.6383 68.8688 80.6383C68.8688 78.3375 68.8688 76.1085 68.8688 73.8795C66.9909 74.0233 65.2213 74.1671 63.3795 74.3109C63.199 76.432 63.0184 78.5172 62.8017 80.6743C61.5016 80.6743 60.2737 80.6743 59.0098 80.6743C59.0098 82.3999 59.0098 84.0537 59.0098 85.7434C60.2015 85.7434 61.3211 85.7434 62.5128 85.7434C62.5128 86.1388 62.5128 86.4984 62.5128 86.8219C62.5128 90.1294 62.4767 93.4369 62.5128 96.7444C62.5489 99.9081 63.6323 101.706 65.9797 102.425C68.5799 103.216 71.2162 103.072 73.8887 102.497C73.8887 100.915 73.8887 99.4048 73.8887 97.8949C73.1303 97.8949 72.4441 97.8949 71.7579 97.8949Z" fill="white"/>
<path d="M87.7562 97.8949C85.8782 97.859 85.3004 97.3197 85.2643 95.4143C85.2282 93.4011 85.2643 91.4237 85.2643 89.4105C85.2643 88.1881 85.2643 87.0017 85.2643 85.6716C86.8894 85.6716 88.4062 85.6716 89.923 85.6716C89.923 83.9819 89.923 82.4 89.923 80.6384C88.334 80.6384 86.8172 80.6384 85.1921 80.6384C85.1921 78.3375 85.1921 76.1086 85.1921 73.8436C83.3142 73.9874 81.5446 74.1312 79.7028 74.275C79.5222 76.3962 79.3055 78.5173 79.125 80.6743C77.7887 80.6743 76.597 80.6743 75.333 80.6743C75.333 82.4 75.333 84.0178 75.333 85.7075C76.5248 85.7075 77.6443 85.7075 78.836 85.7075C78.836 86.103 78.836 86.4625 78.836 86.786C78.836 90.0935 78.7999 93.4011 78.8722 96.7086C78.9083 98.7937 79.2333 100.915 81.4001 101.993C84.2531 103.431 87.2506 103.072 90.2119 102.497C90.2119 100.843 90.2119 99.333 90.2119 97.859C89.3813 97.8949 88.5868 97.8949 87.7562 97.8949Z" fill="white"/>
<path d="M57.3129 92.7179C57.5657 91.208 57.349 89.1947 56.6629 87.2174C55.435 83.5863 52.9432 81.2495 49.1512 80.5305C45.2509 79.8115 41.784 80.7462 39.1838 83.9099C36.692 86.9298 36.1141 90.489 36.7281 94.2279C37.3781 98.2544 39.5449 101.166 43.5175 102.389C47.5622 103.647 51.3903 103.18 54.6044 100.16C55.5795 99.2251 56.4101 98.1465 56.8796 96.8883C57.0962 96.5287 57.349 95.0907 57.349 95.0907H51.4625C51.0291 97.823 48.6095 98.8656 46.5149 98.3982C44.1675 97.8949 42.8313 95.4143 43.4452 92.7539C48.0678 92.7179 52.6904 92.7179 57.3129 92.7179ZM47.2733 84.6649C49.4762 84.6649 51.2458 86.5703 51.2458 88.9431H43.3369C43.3369 86.5703 45.1065 84.6649 47.2733 84.6649Z" fill="white"/>
<path d="M112.891 94.5873C112.855 91.8551 112.891 89.0868 112.819 86.3545C112.747 83.9818 111.519 82.2561 109.388 81.4292C107.835 80.8181 106.138 80.4945 104.477 80.3507C101.804 80.135 99.1681 80.5664 96.7846 82.0045C95.1956 82.9751 94.1483 84.2694 93.7149 86.031C93.5705 86.4624 93.4621 87.6488 93.4621 87.6488H99.3126C100.179 85.0963 101.841 84.0896 104.224 84.5929C105.921 84.9524 106.535 86.2107 106.319 88.9071C104.657 89.0868 103.032 89.2306 101.443 89.4463C99.1681 89.7339 97.0374 90.3092 95.1956 91.7472C92.0176 94.2278 91.9815 99.4407 95.1595 101.67C97.7958 103.539 102.238 103.395 104.766 101.31C105.452 100.735 106.066 100.124 106.68 99.5486C106.788 100.483 106.896 101.49 107.005 102.497C109.172 102.497 111.194 102.497 113.036 102.497C112.964 99.8362 112.891 97.2118 112.891 94.5873ZM105.596 97.068C105.019 98.0386 104.224 98.6498 103.105 98.9015C101.732 99.225 100.468 98.7217 99.8904 97.6072C99.2403 96.3489 99.5292 94.7671 100.613 93.8683C101.949 92.7898 103.574 92.5022 105.235 92.2146C105.56 92.1427 105.921 92.1427 106.355 92.1067C106.427 93.8683 106.499 95.558 105.596 97.068Z" fill="white"/>
</svg>
