<svg width="165" height="136" viewBox="0 0 165 136" fill="none" xmlns="http://www.w3.org/2000/svg">
<g clip-path="url(#clip0_1301_180)">
<mask id="mask0_1301_180" style="mask-type:luminance" maskUnits="userSpaceOnUse" x="56" y="9" width="53" height="124">
<path d="M56.3999 111.9L82.3999 132.1L108.4 111.9V95.7L82.3999 115.9L56.3999 95.7V111.9ZM56.3999 29.4L82.3999 9.19995L108.4 29.4V45.5999L82.3999 25.4L56.3999 45.5999V29.4Z" fill="white"/>
</mask>
<g mask="url(#mask0_1301_180)">
<path d="M150.1 0H14.5V135.6H150.1V0Z" fill="url(#paint0_linear_1301_180)"/>
</g>
<path d="M85.7001 83.5L84.4001 87.7L82.9001 83.5H80.6001L83.3001 90C83.0001 90.8 82.5001 91.1 81.6001 91.1V93C83.5001 93.1 84.7001 92.2 85.5001 90L87.8001 83.3H85.7001V83.5ZM76.7001 85.5V83.5H75.3001V81.6L73.2001 82.2V83.5H72.1001V85.5H73.2001V87.9C73.2001 89.8 74.0001 90.6 76.7001 90.4V88.5C75.8001 88.6 75.3001 88.5 75.3001 87.9V85.5H76.7001ZM65.1001 85.5C65.1001 85.3 65.3001 85.1 65.7001 85.1C66.2001 85.1 66.4001 85.3 66.6001 85.7L68.4001 84.8C67.8001 83.8 66.8001 83.3 65.7001 83.3C64.3001 83.3 63.0001 84.1 63.0001 85.5C63.0001 87.9 66.4001 87.5 66.4001 88.2C66.4001 88.5 66.2001 88.6 65.7001 88.6C65.1001 88.6 64.7001 88.3 64.5001 87.8L62.7001 88.8C63.2001 89.9 64.3001 90.4 65.7001 90.4C67.2001 90.4 68.6001 89.7 68.6001 88.2C68.5001 85.8 65.1001 86.3 65.1001 85.5ZM125.6 86.2C125.8 85.5 126.3 85.1 127.1 85.1C127.7 85.1 128.3 85.4 128.6 86.2H125.6ZM125.6 87.8H130.5C130.6 87.5 130.6 87.3 130.6 87C130.6 84.9 129.1 83.4 127.1 83.4C124.9 83.4 123.5 85 123.5 87C123.5 89 125 90.6 127.3 90.6C128.6 90.6 129.6 90.1 130.3 89.2L128.7 88.3C128.4 88.6 127.9 88.8 127.4 88.8C126.5 88.7 125.9 88.5 125.6 87.8ZM116.1 85.5C116.1 85.3 116.3 85.1 116.7 85.1C117.2 85.1 117.4 85.3 117.6 85.7L119.4 84.8C118.8 83.8 117.8 83.3 116.7 83.3C115.3 83.3 114 84.1 114 85.5C114 87.9 117.4 87.5 117.4 88.2C117.4 88.5 117.2 88.6 116.7 88.6C116.1 88.6 115.7 88.3 115.5 87.8L113.7 88.8C114.2 89.9 115.3 90.4 116.7 90.4C118.2 90.4 119.6 89.7 119.6 88.2C119.5 85.8 116.1 86.3 116.1 85.5ZM107.3 90.4H109.4V83.5H107.3V90.4ZM108.3 82.9C108.9 82.9 109.5 82.4 109.5 81.7C109.5 81.1 109 80.5 108.3 80.5C107.7 80.5 107.1 81 107.1 81.7C107.2 82.4 107.7 82.9 108.3 82.9ZM100.9 84.7V83.5H98.8001V90.4H100.9V87.3C100.9 85.9 102.1 85.6 103 85.7V83.4C102.1 83.4 101.2 83.8 100.9 84.7ZM56.2001 83.5V87.2C56.2001 88.2 55.7001 88.6 54.9001 88.6C54.2001 88.6 53.7001 88.2 53.7001 87.4V83.5H51.6001V87.7C51.6001 89.6 52.8001 90.5 54.2001 90.5C55.1001 90.5 55.8001 90.2 56.2001 89.7V90.3H58.3001V83.4H56.2001V83.5ZM45.4001 84.7V83.5H43.3001V90.4H45.4001V87.3C45.4001 85.9 46.6001 85.6 47.5001 85.7V83.4C46.6001 83.4 45.7001 83.8 45.4001 84.7ZM38.7001 85.5V83.5H37.3001V81.6L35.2001 82.2V83.5H34.1001V85.5H35.2001V87.9C35.2001 89.8 36.0001 90.6 38.7001 90.4V88.5C37.8001 88.6 37.3001 88.5 37.3001 87.9V85.5H38.7001Z" fill="#414A55"/>
<path d="M149.9 61.1V56.7V50.6H143.6V78H149.9V70.2V67.2V61.1ZM119 78.5C124 78.5 128.4 76 130.7 72.2L125.3 69.1C124.1 71.2 121.7 72.5 119 72.5C114.1 72.5 111 69.3 111 64.4C111 59.5 114.1 56.3 119 56.3C121.8 56.3 124.1 57.6 125.3 59.7L130.7 56.6C128.3 52.7 123.9 50.3 119 50.3C110.7 50.3 104.8 56.5 104.8 64.5C104.7 72.3 110.7 78.5 119 78.5ZM86.7 78H93.4L87.6 67.9C90.6 66.4 92.6 63.3 92.6 60C92.6 54.8 88.4 50.6 83.2 50.6H72.2V78H78.5V72V69V63.5V60.6V56.4H83.2C84.9 56.4 86.3 57.9 86.3 59.9C86.3 61.9 84.9 63.4 83.2 63.4H81.5V69L86.7 78ZM44.5 78.5C52.4 78.5 58.7 72.3 58.7 64.3C58.7 56.2 52.3 50.1 44.5 50.1C36.6 50.1 30.3 56.3 30.3 64.3C30.3 72.3 36.7 78.5 44.5 78.5ZM44.5 72.4C40 72.4 36.5 69.2 36.5 64.3C36.5 59.4 40 56.2 44.5 56.2C49 56.2 52.5 59.4 52.5 64.3C52.5 69.2 49 72.4 44.5 72.4ZM13.3 50.6H0V56.6H7V78H13.3V58.4V56.6V50.6ZM15.4 50.6H20.3V56.6H15.4V50.6ZM158.5 50.6V61.1H152V67.1H158.5V78H164.8V50.6H158.5Z" fill="#303030"/>
</g>
<defs>
<linearGradient id="paint0_linear_1301_180" x1="26.1195" y1="42.3064" x2="149.65" y2="98.3479" gradientUnits="userSpaceOnUse">
<stop stop-color="#EA8823"/>
<stop offset="0.3919" stop-color="#EB7524"/>
<stop offset="0.7527" stop-color="#EC6624"/>
<stop offset="1" stop-color="#ED6124"/>
</linearGradient>
<clipPath id="clip0_1301_180">
<rect width="164.7" height="135.6" fill="white"/>
</clipPath>
</defs>
</svg>
