<svg width="131" height="31" viewBox="0 0 131 31" fill="none" xmlns="http://www.w3.org/2000/svg">
<path d="M7.75908 4.63958C7.75908 12.8246 0.917969 14.3564 0.917969 22.2236C0.917969 25.295 2.84918 27.9547 5.12868 28.2725C4.96233 27.7124 4.90775 27.28 4.90775 26.6756C4.90775 20.9966 14.0154 19.2356 14.0154 9.55008C14.0154 4.91831 10.756 1.00294 6.95333 0.072937C6.95333 0.072937 7.75648 2.5868 7.75648 4.63697L7.75908 4.63958Z" fill="#FF2F2B"/>
<path d="M7.18164 27.0195C7.18164 28.6268 8.31749 30.3383 9.79904 30.8958C9.72107 30.6587 9.68468 30.4503 9.68468 30.1013C9.68468 26.9361 19.0262 25.928 19.0262 17.657C19.0262 15.3697 18.0723 12.8871 16.1827 11.259C14.9039 20.6606 7.18164 21.9553 7.18164 27.0195Z" fill="#6EC248"/>
<path d="M2.2873 2.69882C2.2873 2.69882 2.73696 3.50899 2.73696 4.41294C2.73696 7.31756 0 8.4247 0 11.3762C0 12.7699 0.756369 13.9135 1.82464 14.5778C1.85323 14.3251 1.87923 14.0881 1.94421 13.8901C2.58361 11.8399 5.5831 9.57092 5.5831 6.3537C5.5831 4.42596 3.98718 2.83949 2.2873 2.69882Z" fill="#33ADE1"/>
<path d="M32.0018 19.5691C33.7719 21.1686 35.451 22.109 37.8734 22.109C39.2172 22.109 41.6657 21.5411 41.6657 19.7697C41.6657 18.7459 40.8963 18.2275 39.3913 17.9722L35.1676 17.2844C31.4092 16.6879 29.3532 14.6872 29.3532 11.6888C29.3532 6.78092 33.317 4.74899 37.6499 4.74899C41.0133 4.74899 44.322 6.11924 46.5989 8.66176L42.7495 11.4309C41.4083 9.80277 39.4407 8.85714 37.3042 8.85714C36.1423 8.85714 34.4269 9.59957 34.4269 10.9151C34.4269 11.9988 35.3132 12.5433 37.247 12.8585L39.1912 13.1711C43.2356 13.8276 46.573 15.0832 46.573 18.9647C46.573 25.0787 41.0678 26.225 37.2808 26.225C33.8342 26.225 30.5982 25.1074 27.8301 22.0829L32.0018 19.5691ZM59.0517 26.2276C52.5771 26.2276 48.7875 21.1972 48.7875 15.4818C48.7875 9.77672 52.5771 4.74899 59.0517 4.74899C65.5186 4.74899 69.3056 9.77672 69.3056 15.4818C69.3056 21.1946 65.516 26.2276 59.0517 26.2276ZM59.0517 9.02907C56.0835 9.02907 53.8637 10.9177 53.8637 15.4818C53.8637 18.4567 55.062 21.9423 59.0517 21.9423C62.8102 21.9423 64.2372 18.626 64.2372 15.4818C64.2372 12.2854 62.8102 9.02907 59.0517 9.02907ZM85.8963 12.09C85.1816 10.2013 83.4427 9.02646 81.67 9.02646C78.8837 9.02646 76.664 10.9203 76.664 15.4844C76.664 18.4567 77.8596 21.9423 81.852 21.9423C83.2192 21.9423 85.2154 20.9159 86.0107 19.0845L90.0291 21.0279C88.2902 24.1982 85.2699 26.225 81.852 26.225C75.3774 26.225 71.5851 21.1972 71.5851 15.4844C71.5851 9.77932 75.1226 4.75159 81.4491 4.75159C85.4363 4.75159 88.0563 6.69235 89.9407 10.0581L85.8963 12.09ZM97.9255 5.3247H103.168L110.836 25.6518H105.388L104.364 22.4555H96.8728L95.8435 25.6518H90.4346L97.9255 5.3247ZM103.137 18.6834L100.634 10.2899H100.579L98.0684 18.6834H103.137ZM112.848 5.32209H122.992C127.554 5.32209 130.351 7.43739 130.351 12.0014C130.351 14.6325 128.695 16.74 126.155 17.485L130.808 25.6518H125.131L121.142 18.3421H117.924V25.6518H112.848V5.32209ZM117.924 14.5648H122.569C124.193 14.5413 125.277 13.7181 125.277 11.8295C125.277 9.94083 124.193 9.11504 122.569 9.08638H117.924V14.5648Z" fill="#0C0C0C"/>
</svg>
