<svg width="153" height="48" viewBox="0 0 153 48" fill="none" xmlns="http://www.w3.org/2000/svg">
<g clip-path="url(#clip0_1336_654)">
<path d="M34.3604 7.05399L36.0171 8.61735L29.998 14.2987V19.24H42.9084V7.05399H34.3604Z" fill="#006700"/>
<path d="M25.1767 0L18.9141 5.91134H21.6602V13.9153L25.176 17.2347L34.3051 8.61735L25.1767 0Z" fill="#6D6D6D"/>
<path d="M7.54004 7.05399V15.4127L9.12853 13.9127L14.7723 19.24H20.4504V7.05399H7.54004Z" fill="#006700"/>
<path d="M6.32944 27.618H14.579L18.2576 24.146L9.12849 15.5287L0 24.146L6.32944 30.12V27.618Z" fill="#6D6D6D"/>
<path d="M14.4314 39.3833L20.4504 33.7013V28.7607H7.54004V40.9467H16.0881L14.4314 39.3833Z" fill="#006700"/>
<path d="M28.7876 42.0893V34.0853L25.2711 30.7653L16.1426 39.3833L25.2711 48L31.5336 42.0893H28.7876Z" fill="#6D6D6D"/>
<path d="M41.3193 34.468L35.2725 28.7607H29.998V40.9467H42.9084V32.968L41.3193 34.468Z" fill="#006700"/>
<path d="M44.1186 18.2614V20.3826H36.2722L32.1904 24.2354L41.3189 32.8534L50.4481 24.2354L44.1186 18.2614Z" fill="#6D6D6D"/>
<path d="M66.5177 37.8973C65.9875 38.126 65.0867 38.316 64.2739 38.316C61.8714 38.316 60.4576 36.7 60.4576 34.1347C60.4576 31.284 62.1183 29.8953 64.2561 29.8953C65.2098 29.8953 65.9697 30.1247 66.517 30.372L67.0651 28.1967C66.5878 27.9487 65.5282 27.6653 64.1323 27.6653C60.5284 27.6653 58.0928 29.934 58.0928 34.3053C58.0928 37.9547 59.8666 40.5447 63.8669 40.5447C65.3157 40.5447 66.429 40.2793 66.9234 40.032L66.5177 37.8973Z" fill="#6D6D6D"/>
<path d="M71.9679 31.504C69.0888 31.504 67.5215 33.4973 67.5215 36.0633C67.5215 38.6573 69.1788 40.496 71.8077 40.496C74.2798 40.496 76.1926 38.892 76.1926 35.918C76.1926 33.5373 74.6869 31.504 71.9679 31.504ZM71.8878 33.6353C73.2685 33.6353 73.8278 34.8233 73.8278 35.9987C73.8278 37.4147 73.0693 38.3647 71.8878 38.3647C70.5866 38.3647 69.8863 37.3507 69.8863 35.9987C69.8863 34.84 70.4271 33.6353 71.8878 33.6353Z" fill="#6D6D6D"/>
<path d="M77.6115 40.342H79.9763V35.342C79.9763 35.0933 80.0101 34.828 80.0769 34.668C80.2444 34.1713 80.6627 33.658 81.3663 33.658C82.2869 33.658 82.6569 34.4193 82.6569 35.536V40.3414H85.0218V35.2C85.0218 32.65 83.8542 31.482 82.271 31.482C80.9149 31.482 80.0776 32.3134 79.7586 32.862H79.7116L79.603 31.6574H77.542C77.5771 32.4247 77.6128 33.3473 77.6128 34.4307V40.342H77.6115Z" fill="#6D6D6D"/>
<path d="M86.8271 39.8127C87.444 40.2153 88.368 40.496 89.4038 40.496C92.0294 40.496 93.187 39.1493 93.187 37.5413C93.1712 36.402 92.5437 35.658 91.0479 35.152C89.8188 34.8194 89.4038 34.63 89.4038 34.2653C89.4038 33.87 89.8618 33.6353 90.6693 33.6353C91.3854 33.6353 92.0612 33.886 92.4153 34.076L92.8495 32.0727C92.3663 31.768 91.5463 31.504 90.5601 31.504C88.3025 31.504 87.039 32.9053 87.039 34.5033C87.0211 35.4213 87.6545 36.292 89.2913 36.8293C90.4946 37.13 90.8228 37.3193 90.8228 37.7153C90.8228 38.1113 90.4079 38.3647 89.4038 38.3647C88.6757 38.3647 87.7359 38.048 87.2819 37.7787L86.8271 39.8127Z" fill="#6D6D6D"/>
<path d="M94.6063 29.628V31.504H93.458V33.6353H94.6063V37.2073C94.6063 38.4393 94.8281 39.2707 95.2729 39.7833C95.6541 40.226 96.3047 40.5267 97.0943 40.5267C97.8541 40.5267 98.4902 40.438 98.843 40.296L98.8257 38.2607C98.6312 38.2967 98.3664 38.332 98.0308 38.332C97.2181 38.332 96.9705 37.8493 96.9705 36.7953V33.634H98.8959V31.5027H96.9705V29.0254L94.6063 29.628Z" fill="#6D6D6D"/>
<path d="M100.912 40.342H103.276V35.9393C103.276 35.486 103.294 35.2613 103.329 35.0753C103.506 34.1973 104.177 33.6353 105.167 33.6353C105.467 33.6353 105.696 33.6747 105.891 33.7113V31.5347C105.696 31.5033 105.573 31.5033 105.326 31.5033C104.496 31.5033 103.435 31.958 103.026 33.0307H102.964L102.887 31.6567H100.841C100.877 32.406 100.912 33.2407 100.912 34.5187V40.342Z" fill="#6D6D6D"/>
<path d="M114.627 31.6573H112.263V36.8167C112.263 37.0293 112.245 37.2427 112.177 37.402C112.006 37.8274 111.597 38.3413 110.88 38.3413C109.975 38.3413 109.583 37.5787 109.583 36.32V31.6573H107.218V36.746C107.218 39.4213 108.346 40.518 109.907 40.518C111.409 40.518 112.194 39.6333 112.494 39.1027H112.541L112.649 40.3413H114.698C114.663 39.614 114.628 38.6906 114.628 37.5546V31.6573H114.627Z" fill="#6D6D6D"/>
<path d="M122.914 38.1053C122.508 38.2607 122.013 38.3647 121.377 38.3647C120.069 38.3647 119.01 37.5533 119.01 36.0013C118.995 34.6213 119.911 33.6353 121.324 33.6353C122.03 33.6353 122.508 33.7586 122.826 33.8966L123.25 31.9833C122.685 31.6327 121.908 31.504 121.201 31.504C118.132 31.504 116.646 33.6353 116.646 36.1047C116.646 38.7773 118.178 40.496 120.83 40.496C121.854 40.496 122.756 40.3173 123.232 40.102L122.914 38.1053Z" fill="#6D6D6D"/>
<path d="M125.475 29.628V31.504H124.326V33.6353H125.475V37.2073C125.475 38.4393 125.697 39.2707 126.141 39.7833C126.522 40.226 127.173 40.5267 127.962 40.5267C128.722 40.5267 129.358 40.438 129.712 40.296L129.694 38.2607C129.499 38.2967 129.235 38.332 128.899 38.332C128.086 38.332 127.839 37.8493 127.839 36.7953V33.634H129.765V31.5027H127.839V29.0254L125.475 29.628Z" fill="#6D6D6D"/>
<path d="M133.482 40.342V31.658H131.118V40.342H133.482ZM132.292 27.9873C131.573 27.9873 131.1 28.446 131.118 29.0593C131.1 29.6447 131.573 30.1186 132.278 30.1186C133.012 30.1186 133.482 29.6447 133.482 29.0593C133.467 28.446 133.012 27.9873 132.292 27.9873Z" fill="#6D6D6D"/>
<path d="M139.947 31.504C137.068 31.504 135.501 33.4973 135.501 36.0633C135.501 38.6573 137.158 40.496 139.787 40.496C142.259 40.496 144.171 38.892 144.171 35.918C144.172 33.5373 142.666 31.504 139.947 31.504ZM139.867 33.6353C141.248 33.6353 141.807 34.8233 141.807 35.9987C141.807 37.4147 141.048 38.3647 139.867 38.3647C138.567 38.3647 137.866 37.3507 137.866 35.9987C137.866 34.84 138.406 33.6353 139.867 33.6353Z" fill="#6D6D6D"/>
<path d="M145.59 40.342H147.955V35.342C147.955 35.0933 147.989 34.828 148.056 34.668C148.223 34.1713 148.642 33.658 149.345 33.658C150.266 33.658 150.636 34.4193 150.636 35.536V40.3414H153.001V35.2C153.001 32.65 151.833 31.482 150.25 31.482C148.894 31.482 148.056 32.3134 147.737 32.862H147.691L147.583 31.6574H145.521C145.557 32.4247 145.592 33.3473 145.592 34.4307V40.342H145.59Z" fill="#6D6D6D"/>
<path d="M58.0938 19.5353H60.4586V15.5733C60.7617 15.61 61.1516 15.628 61.5844 15.628C63.533 15.628 64.9792 15.2267 65.7939 14.3347C66.4207 13.6427 66.7649 12.4733 66.7649 11.0667C66.7649 9.65999 66.3115 8.53934 65.6377 7.90934C64.9328 7.24201 63.6845 6.90865 61.65 6.90865C59.8642 6.90865 58.8304 7.01935 58.0944 7.16801V19.5353H58.0938ZM60.4586 9.16801C60.6969 9.10401 61.1516 9.03935 61.8227 9.03935C63.4681 9.03935 64.3994 9.82933 64.3994 11.1513C64.3994 12.622 63.3159 13.496 61.5626 13.496C61.0861 13.496 60.7399 13.4754 60.4579 13.4107V9.16801H60.4586Z" fill="#006700"/>
<path d="M73.5519 16.8907L74.4785 19.5353H77.398L73.6763 7.06132H70.1121L66.4414 19.5353H69.257L70.1128 16.8907H73.5519ZM70.5046 14.7593L71.2174 11.914C71.4134 10.946 71.5914 9.87734 71.7701 9.03934H71.8059C71.9839 9.87801 72.1977 10.9247 72.4121 11.7633L73.1607 14.7593H70.5046Z" fill="#006700"/>
<path d="M78.1143 19.004C78.7185 19.3753 79.8854 19.7293 81.1589 19.7293C84.3643 19.7293 85.6827 18.0307 85.6827 15.9247C85.6827 14.1227 84.8342 12.9467 82.9638 12.112C81.3448 11.486 80.6373 11.1253 80.6373 10.3107C80.6373 9.64667 81.233 9.07934 82.4608 9.07934C83.6203 9.07934 84.3484 9.438 84.7574 9.684L85.273 7.46932C84.6661 7.14998 83.8169 6.86735 82.5163 6.86735C79.7458 6.86735 78.2718 8.42468 78.2718 10.5567C78.2718 12.4153 79.393 13.5913 81.2131 14.3313C82.7202 14.8807 83.3165 15.3366 83.3165 16.1326C83.3165 16.9673 82.6275 17.5173 81.325 17.5173C80.2071 17.5173 79.2394 17.1187 78.6093 16.7207L78.1143 19.004Z" fill="#006700"/>
<path d="M88.3623 7.06132V19.5353H90.7272V14.4753H95.9294V19.5353H98.2943V7.06132H95.9294V12.122H90.7272V7.06132H88.3623Z" fill="#006700"/>
<path d="M106.942 16.8907L107.868 19.5353H110.789L107.067 7.06132H103.503L99.832 19.5353H102.648L103.503 16.8907H106.942ZM103.895 14.7593L104.607 11.914C104.803 10.946 104.981 9.87734 105.16 9.03934H105.196C105.374 9.87801 105.588 10.9247 105.801 11.7633L106.55 14.7593H103.895Z" fill="#006700"/>
</g>
<defs>
<clipPath id="clip0_1336_654">
<rect width="153" height="48" fill="white"/>
</clipPath>
</defs>
</svg>
