<svg width="149" height="45" viewBox="0 0 149 45" fill="none" xmlns="http://www.w3.org/2000/svg">
<path d="M0 22.3003H4.84926L7.8295 27.2177L10.8097 22.3003H15.659V36.2902H11.0257V29.3545L7.82557 34.3312H7.74704L4.54692 29.3545V36.2902H0V22.3003Z" fill="#373F48"/>
<path d="M22.0907 22.2014H26.7004L32.5627 36.2901H27.5171L26.7829 34.41H21.914L21.1994 36.2901H16.2323L22.0907 22.2014ZM25.6285 31.0923L24.3563 27.6955L23.0841 31.0923H25.6285Z" fill="#373F48"/>
<path d="M36.4775 29.1768L31.9659 22.3003H37.251L39.2574 25.6378L41.2835 22.3003H46.4705L41.9628 29.1136L46.6707 36.2902H41.3856L39.1789 32.6525L36.9526 36.2902H31.7656L36.4775 29.1768Z" fill="#373F48"/>
<path d="M45.8737 29.3346V29.2952C45.8737 25.1163 49.1091 22 53.2634 22C56.3222 22 58.3875 23.5009 59.5615 25.6377L55.7253 27.8969C55.2109 26.8977 54.4728 26.1986 53.2006 26.1986C51.63 26.1986 50.5973 27.577 50.5973 29.2557V29.2952C50.5973 31.116 51.6692 32.3917 53.2006 32.3917C54.512 32.3917 55.2463 31.6729 55.8235 30.6341L59.6558 32.8104C58.4857 34.888 56.5381 36.5864 53.0788 36.5864C49.2308 36.5903 45.8737 33.6715 45.8737 29.3346Z" fill="#373F48"/>
<path d="M60.5549 22.3003H67.3478C69.8098 22.3003 71.3804 22.9204 72.3542 23.8999C73.1866 24.7412 73.6263 25.78 73.6263 27.2177V27.2572C73.6263 29.2953 72.574 30.7132 70.8856 31.5348L74.125 36.2902H68.8203L66.1974 32.2931H65.2039V36.2902H60.5549V22.3003ZM67.2104 28.9556C68.3216 28.9556 68.997 28.454 68.997 27.5969V27.5574C68.997 26.6568 68.302 26.2184 67.23 26.2184H65.2039V28.9556H67.2104Z" fill="#373F48"/>
<path d="M74.7572 22.3003H86.6193V26.1355H79.3277V27.5534H86.1245V30.9305H79.3277V32.4511H86.7174V36.2902H74.7572V22.3003Z" fill="#373F48"/>
<path d="M92.8192 22.2014H97.429L103.291 36.2901H98.2417L97.5075 34.41H92.6386L91.924 36.2901H86.9569L92.8192 22.2014ZM96.3531 31.0923L95.0809 27.6955L93.8087 31.0923H96.3531Z" fill="#373F48"/>
<path d="M105.631 26.2579H101.54V22.3003H114.376V26.2579H110.284V36.2902H105.635V26.2579H105.631Z" fill="#373F48"/>
<path d="M115.467 22.3003H120.116V36.2902H115.467V22.3003Z" fill="#373F48"/>
<path d="M120.729 22.3003H125.936L128.637 30.1524L131.338 22.3003H136.463L130.82 36.389H126.371L120.729 22.3003Z" fill="#373F48"/>
<path d="M137.04 22.3003H148.902V26.1355H141.61V27.5534H148.407V30.9305H141.61V32.4511H149V36.2902H137.04V22.3003Z" fill="#373F48"/>
<path d="M74.8868 39.3789H75.2088V39.7344H74.8868V39.3789ZM74.9182 40.4374H75.1773V43.1351H74.9182V40.4374Z" fill="#373F48"/>
<path d="M76.1904 40.4375H76.4495V40.9391C76.6262 40.6231 76.9286 40.3743 77.4194 40.3743C78.0987 40.3743 78.4913 40.8403 78.4913 41.4841V43.1351H78.2322V41.5315C78.2322 40.9746 77.922 40.6113 77.3801 40.6113C76.854 40.6113 76.4495 41.0141 76.4495 41.575V43.1351H76.1904V40.4375Z" fill="#373F48"/>
<path d="M79.5593 42.4439V40.6744H79.1706V40.4375H79.5593V39.5764H79.8185V40.4375H80.7608V40.6744H79.8185V42.4163C79.8185 42.8033 80.0462 42.9416 80.3564 42.9416C80.4899 42.9416 80.5998 42.9139 80.7491 42.8468V43.0917C80.6116 43.1549 80.4821 43.1865 80.3132 43.1865C79.897 43.1865 79.5593 42.9574 79.5593 42.4439Z" fill="#373F48"/>
<path d="M81.2635 41.7922V41.7804C81.2635 40.9983 81.8093 40.3743 82.5357 40.3743C83.2856 40.3743 83.7686 40.9904 83.7686 41.7883C83.7686 41.8357 83.7686 41.8515 83.7647 41.8949H81.5383C81.5855 42.5664 82.0645 42.9574 82.5906 42.9574C83.0069 42.9574 83.2896 42.7718 83.5094 42.5348L83.6901 42.6928C83.4152 42.989 83.0972 43.2023 82.5789 43.2023C81.8721 43.2023 81.2635 42.6375 81.2635 41.7922ZM83.4859 41.6619C83.4506 41.1168 83.1404 40.6152 82.5239 40.6152C81.9938 40.6152 81.5815 41.0655 81.5344 41.6619H83.4859Z" fill="#373F48"/>
<path d="M84.4675 43.5814L84.6207 43.3721C84.9426 43.6209 85.3117 43.7513 85.7044 43.7513C86.3208 43.7513 86.7567 43.3958 86.7567 42.7046V42.3136C86.525 42.6454 86.1677 42.9376 85.6376 42.9376C84.9898 42.9376 84.3497 42.44 84.3497 41.6658V41.654C84.3497 40.8759 84.9937 40.3743 85.6376 40.3743C86.1756 40.3743 86.5368 40.6586 86.7567 40.9786V40.4375H87.0158V42.7204C87.0158 43.1114 86.8902 43.4195 86.6742 43.6367C86.4426 43.8698 86.097 43.9962 85.7005 43.9962C85.2528 43.9962 84.8366 43.8579 84.4675 43.5814ZM86.7724 41.6619V41.65C86.7724 41.026 86.2188 40.6231 85.6612 40.6231C85.0997 40.6231 84.6246 41.0141 84.6246 41.6461V41.6579C84.6246 42.2662 85.1075 42.6888 85.6612 42.6888C86.2188 42.6888 86.7724 42.2741 86.7724 41.6619Z" fill="#373F48"/>
<path d="M87.9935 40.4373H88.2527V41.2036C88.4647 40.7217 88.9123 40.3741 89.4424 40.3939V40.6782H89.4149C88.7945 40.6782 88.2527 41.1483 88.2527 42.0291V43.135H87.9935V40.4373Z" fill="#373F48"/>
<path d="M89.7487 42.3531V42.3413C89.7487 41.7804 90.2277 41.4644 90.9227 41.4644C91.2957 41.4644 91.5549 41.5118 91.8101 41.579V41.4644C91.8101 40.9194 91.4803 40.6389 90.9266 40.6389C90.6007 40.6389 90.3337 40.7298 90.0863 40.8562L89.9921 40.6271C90.2866 40.4888 90.5772 40.394 90.9463 40.394C91.3075 40.394 91.5981 40.4928 91.7944 40.6903C91.9711 40.872 92.0693 41.1208 92.0693 41.4526V43.1352H91.818V42.6849C91.6334 42.9456 91.3036 43.1984 90.7931 43.1984C90.2827 43.2023 89.7487 42.914 89.7487 42.3531ZM91.814 42.128V41.8199C91.5863 41.7606 91.2879 41.6975 90.9031 41.6975C90.3337 41.6975 90.0196 41.9502 90.0196 42.3294V42.3413C90.0196 42.7323 90.3887 42.9614 90.797 42.9614C91.3468 42.9574 91.814 42.6217 91.814 42.128Z" fill="#373F48"/>
<path d="M93.1059 42.4439V40.6744H92.7172V40.4375H93.1059V39.5764H93.365V40.4375H94.3074V40.6744H93.365V42.4163C93.365 42.8033 93.5928 42.9416 93.903 42.9416C94.0365 42.9416 94.1464 42.9139 94.2956 42.8468V43.0917C94.1582 43.1549 94.0286 43.1865 93.8598 43.1865C93.4436 43.1865 93.1059 42.9574 93.1059 42.4439Z" fill="#373F48"/>
<path d="M94.806 41.7922V41.7804C94.806 40.9983 95.3518 40.3743 96.0782 40.3743C96.8321 40.3743 97.3112 40.9904 97.3112 41.7883C97.3112 41.8357 97.3112 41.8515 97.3072 41.8949H95.0809C95.128 42.5664 95.607 42.9574 96.1332 42.9574C96.5494 42.9574 96.8321 42.7718 97.052 42.5348L97.2326 42.6928C96.9578 42.989 96.6397 43.2023 96.1214 43.2023C95.4146 43.2023 94.806 42.6375 94.806 41.7922ZM97.0324 41.6619C96.997 41.1168 96.6868 40.6152 96.0704 40.6152C95.5403 40.6152 95.128 41.0655 95.0809 41.6619H97.0324Z" fill="#373F48"/>
<path d="M97.8923 41.8V41.7882C97.8923 40.9114 98.552 40.3742 99.1959 40.3742C99.7339 40.3742 100.079 40.6823 100.299 41.018V39.2722H100.558V43.1351H100.299V42.5307C100.068 42.8862 99.726 43.1983 99.1959 43.1983C98.5481 43.2022 97.8923 42.6769 97.8923 41.8ZM100.315 41.7921V41.7803C100.315 41.0891 99.7771 40.623 99.2195 40.623C98.6344 40.623 98.1672 41.0496 98.1672 41.7763V41.7882C98.1672 42.4991 98.658 42.9534 99.2195 42.9534C99.781 42.9534 100.315 42.4833 100.315 41.7921Z" fill="#373F48"/>
<path d="M103.119 40.4375H103.378V40.9193C103.55 40.6389 103.794 40.3743 104.273 40.3743C104.74 40.3743 105.031 40.6428 105.176 40.9549C105.349 40.6547 105.639 40.3743 106.146 40.3743C106.782 40.3743 107.179 40.8245 107.179 41.4999V43.1351H106.919V41.5315C106.919 40.9509 106.621 40.6113 106.126 40.6113C105.675 40.6113 105.278 40.9588 105.278 41.5631V43.1351H105.019V41.5157C105.019 40.9549 104.713 40.6113 104.234 40.6113C103.755 40.6113 103.378 41.0339 103.378 41.5789V43.1351H103.119V40.4375Z" fill="#373F48"/>
<path d="M107.905 42.3531V42.3413C107.905 41.7804 108.384 41.4644 109.079 41.4644C109.452 41.4644 109.711 41.5118 109.966 41.579V41.4644C109.966 40.9194 109.637 40.6389 109.083 40.6389C108.757 40.6389 108.49 40.7298 108.243 40.8562L108.148 40.6271C108.443 40.4888 108.733 40.394 109.103 40.394C109.468 40.394 109.754 40.4928 109.951 40.6903C110.131 40.872 110.226 41.1208 110.226 41.4526V43.1352H109.974V42.6849C109.79 42.9456 109.46 43.1984 108.949 43.1984C108.439 43.2023 107.905 42.914 107.905 42.3531ZM109.97 42.128V41.8199C109.743 41.7606 109.444 41.6975 109.059 41.6975C108.49 41.6975 108.176 41.9502 108.176 42.3294V42.3413C108.176 42.7323 108.545 42.9614 108.953 42.9614C109.503 42.9574 109.97 42.6217 109.97 42.128Z" fill="#373F48"/>
<path d="M111.148 40.4373H111.407V41.2036C111.62 40.7217 112.067 40.3741 112.597 40.3939V40.6782H112.57C111.949 40.6782 111.407 41.1483 111.407 42.0291V43.135H111.148V40.4373Z" fill="#373F48"/>
<path d="M113.253 39.2761H113.512V42.1713L115.177 40.4413H115.519L114.345 41.6381L115.554 43.139H115.228L114.164 41.8197L113.512 42.4794V43.135H113.253V39.2761Z" fill="#373F48"/>
<path d="M115.884 41.7922V41.7804C115.884 40.9983 116.429 40.3743 117.156 40.3743C117.91 40.3743 118.389 40.9904 118.389 41.7883C118.389 41.8357 118.389 41.8515 118.385 41.8949H116.159C116.206 42.5664 116.685 42.9574 117.211 42.9574C117.627 42.9574 117.91 42.7718 118.13 42.5348L118.31 42.6928C118.035 42.989 117.717 43.2023 117.199 43.2023C116.496 43.2023 115.884 42.6375 115.884 41.7922ZM118.11 41.6619C118.071 41.1168 117.764 40.6152 117.148 40.6152C116.618 40.6152 116.206 41.0655 116.159 41.6619H118.11Z" fill="#373F48"/>
<path d="M119.284 42.4439V40.6744H118.895V40.4375H119.284V39.5764H119.539V40.4375H120.482V40.6744H119.539V42.4163C119.539 42.8033 119.767 42.9416 120.077 42.9416C120.211 42.9416 120.321 42.9139 120.474 42.8468V43.0917C120.336 43.1549 120.207 43.1865 120.038 43.1865C119.622 43.1865 119.284 42.9574 119.284 42.4439Z" fill="#373F48"/>
<path d="M121.255 39.3789H121.577V39.7344H121.255V39.3789ZM121.287 40.4374H121.546V43.1351H121.287V40.4374Z" fill="#373F48"/>
<path d="M122.559 40.4375H122.818V40.9391C122.998 40.6231 123.297 40.3743 123.788 40.3743C124.467 40.3743 124.86 40.8403 124.86 41.4841V43.1351H124.601V41.5315C124.601 40.9746 124.29 40.6113 123.748 40.6113C123.222 40.6113 122.818 41.0141 122.818 41.575V43.1351H122.559V40.4375Z" fill="#373F48"/>
<path d="M125.735 43.5814L125.888 43.3721C126.21 43.6209 126.576 43.7513 126.972 43.7513C127.589 43.7513 128.025 43.3958 128.025 42.7046V42.3136C127.793 42.6454 127.436 42.9376 126.905 42.9376C126.258 42.9376 125.618 42.44 125.618 41.6658V41.654C125.618 40.8759 126.258 40.3743 126.905 40.3743C127.443 40.3743 127.805 40.6586 128.025 40.9786V40.4375H128.284V42.7204C128.284 43.1114 128.158 43.4195 127.942 43.6367C127.71 43.8698 127.365 43.9962 126.968 43.9962C126.517 43.9962 126.101 43.8579 125.735 43.5814ZM128.036 41.6619V41.65C128.036 41.026 127.483 40.6231 126.925 40.6231C126.364 40.6231 125.888 41.0141 125.888 41.6461V41.6579C125.888 42.2662 126.371 42.6888 126.925 42.6888C127.487 42.6888 128.036 42.2741 128.036 41.6619Z" fill="#373F48"/>
<path d="M130.62 42.3531V42.3413C130.62 41.7804 131.099 41.4644 131.794 41.4644C132.167 41.4644 132.426 41.5118 132.681 41.579V41.4644C132.681 40.9194 132.352 40.6389 131.798 40.6389C131.472 40.6389 131.205 40.7298 130.958 40.8562L130.863 40.6271C131.158 40.4888 131.448 40.394 131.814 40.394C132.175 40.394 132.465 40.4928 132.662 40.6903C132.838 40.872 132.937 41.1208 132.937 41.4526V43.1352H132.685V42.6849C132.501 42.9456 132.171 43.1984 131.66 43.1984C131.154 43.2023 130.62 42.914 130.62 42.3531ZM132.685 42.128V41.8199C132.458 41.7606 132.159 41.6975 131.774 41.6975C131.205 41.6975 130.891 41.9502 130.891 42.3294V42.3413C130.891 42.7323 131.26 42.9614 131.668 42.9614C132.218 42.9574 132.685 42.6217 132.685 42.128Z" fill="#373F48"/>
<path d="M133.808 43.5814L133.961 43.3721C134.283 43.6209 134.649 43.7513 135.045 43.7513C135.662 43.7513 136.097 43.3958 136.097 42.7046V42.3136C135.866 42.6454 135.508 42.9376 134.978 42.9376C134.331 42.9376 133.69 42.44 133.69 41.6658V41.654C133.69 40.8759 134.331 40.3743 134.978 40.3743C135.516 40.3743 135.878 40.6586 136.097 40.9786V40.4375H136.357V42.7204C136.357 43.1114 136.231 43.4195 136.015 43.6367C135.783 43.8698 135.438 43.9962 135.041 43.9962C134.594 43.9962 134.177 43.8579 133.808 43.5814ZM136.113 41.6619V41.65C136.113 41.026 135.56 40.6231 135.002 40.6231C134.44 40.6231 133.965 41.0141 133.965 41.6461V41.6579C133.965 42.2662 134.448 42.6888 135.002 42.6888C135.56 42.6888 136.113 42.2741 136.113 41.6619Z" fill="#373F48"/>
<path d="M137.15 41.7922V41.7804C137.15 40.9983 137.696 40.3743 138.422 40.3743C139.176 40.3743 139.655 40.9904 139.655 41.7883C139.655 41.8357 139.655 41.8515 139.651 41.8949H137.425C137.472 42.5664 137.951 42.9574 138.477 42.9574C138.893 42.9574 139.176 42.7718 139.396 42.5348L139.576 42.6928C139.302 42.989 138.983 43.2023 138.465 43.2023C137.762 43.2023 137.15 42.6375 137.15 41.7922ZM139.376 41.6619C139.341 41.1168 139.031 40.6152 138.414 40.6152C137.884 40.6152 137.472 41.0655 137.425 41.6619H139.376Z" fill="#373F48"/>
<path d="M140.409 40.4375H140.668V40.9391C140.849 40.6231 141.147 40.3743 141.638 40.3743C142.317 40.3743 142.71 40.8403 142.71 41.4841V43.1351H142.451V41.5315C142.451 40.9746 142.14 40.6113 141.598 40.6113C141.072 40.6113 140.668 41.0141 140.668 41.575V43.1351H140.409V40.4375Z" fill="#373F48"/>
<path d="M143.452 41.8001V41.7883C143.452 41.0299 144.053 40.3743 144.818 40.3743C145.325 40.3743 145.639 40.6073 145.89 40.8719L145.706 41.0615C145.474 40.8245 145.211 40.6152 144.81 40.6152C144.202 40.6152 143.727 41.1287 143.727 41.7725V41.7843C143.727 42.436 144.218 42.9534 144.83 42.9534C145.207 42.9534 145.501 42.7599 145.729 42.5032L145.906 42.6612C145.631 42.9732 145.305 43.1944 144.81 43.1944C144.049 43.2023 143.452 42.5545 143.452 41.8001Z" fill="#373F48"/>
<path d="M146.412 43.8856L146.503 43.6565C146.644 43.7236 146.762 43.7592 146.958 43.7592C147.237 43.7592 147.422 43.5933 147.622 43.1233L146.334 40.4414H146.632L147.747 42.8547L148.717 40.4414H149L147.838 43.2378C147.602 43.8026 147.327 44.0041 146.943 44.0041C146.738 44.0001 146.589 43.9646 146.412 43.8856Z" fill="#373F48"/>
<path d="M1.131 4.514C1.131 4.32333 1.03567 4.228 0.845 4.228H0.299V3.461H1.196C1.47333 3.461 1.67267 3.52167 1.794 3.643C1.91533 3.75567 1.976 3.92467 1.976 4.15C1.976 4.21933 1.97167 4.28 1.963 4.332C1.963 4.384 1.963 4.43167 1.963 4.475V4.592H1.989C2.10167 4.358 2.262 4.14567 2.47 3.955C2.64333 3.79033 2.86867 3.643 3.146 3.513C3.432 3.37433 3.796 3.305 4.238 3.305C4.68 3.305 5.07433 3.39167 5.421 3.565C5.77633 3.72967 6.07533 3.96367 6.318 4.267C6.56933 4.56167 6.76 4.92133 6.89 5.346C7.02 5.77067 7.085 6.23433 7.085 6.737C7.085 7.257 7.01133 7.72933 6.864 8.154C6.71667 8.57 6.513 8.92967 6.253 9.233C5.993 9.52767 5.68533 9.75733 5.33 9.922C4.97467 10.078 4.58467 10.156 4.16 10.156C3.75267 10.156 3.41467 10.0953 3.146 9.974C2.87733 9.844 2.65633 9.701 2.483 9.545C2.28367 9.363 2.12767 9.155 2.015 8.921H1.989C1.989 8.96433 1.99333 9.01633 2.002 9.077C2.002 9.129 2.002 9.18967 2.002 9.259C2.01067 9.32833 2.015 9.40633 2.015 9.493V12.6H1.131V4.514ZM1.989 6.75C1.989 7.07933 2.03233 7.4 2.119 7.712C2.20567 8.024 2.33567 8.30567 2.509 8.557C2.691 8.79967 2.912 8.999 3.172 9.155C3.432 9.30233 3.731 9.376 4.069 9.376C4.355 9.376 4.62367 9.31967 4.875 9.207C5.135 9.08567 5.36033 8.91233 5.551 8.687C5.74167 8.453 5.89333 8.17567 6.006 7.855C6.11867 7.52567 6.175 7.153 6.175 6.737C6.175 6.33833 6.123 5.97867 6.019 5.658C5.92367 5.32867 5.785 5.05133 5.603 4.826C5.421 4.60067 5.2 4.42733 4.94 4.306C4.68867 4.176 4.41133 4.111 4.108 4.111C3.83067 4.111 3.56633 4.163 3.315 4.267C3.06367 4.36233 2.83833 4.51833 2.639 4.735C2.43967 4.95167 2.27933 5.22467 2.158 5.554C2.04533 5.88333 1.989 6.282 1.989 6.75ZM8.14988 6.698C8.14988 6.21267 8.24088 5.76633 8.42288 5.359C8.60488 4.943 8.85188 4.58333 9.16388 4.28C9.47588 3.97667 9.83988 3.73833 10.2559 3.565C10.6719 3.39167 11.1182 3.305 11.5949 3.305C12.0715 3.305 12.5179 3.39167 12.9339 3.565C13.3585 3.73833 13.7269 3.97667 14.0389 4.28C14.3509 4.58333 14.5979 4.943 14.7799 5.359C14.9619 5.76633 15.0529 6.21267 15.0529 6.698C15.0529 7.192 14.9619 7.65133 14.7799 8.076C14.5979 8.492 14.3509 8.856 14.0389 9.168C13.7269 9.48 13.3629 9.72267 12.9469 9.896C12.5309 10.0693 12.0845 10.156 11.6079 10.156C11.1312 10.156 10.6805 10.0693 10.2559 9.896C9.83988 9.72267 9.47588 9.48 9.16388 9.168C8.85188 8.856 8.60488 8.492 8.42288 8.076C8.24088 7.65133 8.14988 7.192 8.14988 6.698ZM9.05988 6.698C9.05988 7.07933 9.12488 7.43467 9.25488 7.764C9.39355 8.08467 9.57555 8.36633 9.80088 8.609C10.0349 8.843 10.3035 9.02933 10.6069 9.168C10.9189 9.298 11.2525 9.363 11.6079 9.363C11.9545 9.363 12.2795 9.298 12.5829 9.168C12.8949 9.02933 13.1635 8.843 13.3889 8.609C13.6229 8.36633 13.8049 8.08467 13.9349 7.764C14.0735 7.43467 14.1429 7.07933 14.1429 6.698C14.1429 6.32533 14.0735 5.983 13.9349 5.671C13.8049 5.35033 13.6229 5.07733 13.3889 4.852C13.1635 4.618 12.8949 4.436 12.5829 4.306C12.2795 4.176 11.9545 4.111 11.6079 4.111C11.2525 4.111 10.9189 4.176 10.6069 4.306C10.3035 4.436 10.0349 4.618 9.80088 4.852C9.57555 5.07733 9.39355 5.35033 9.25488 5.671C9.12488 5.983 9.05988 6.32533 9.05988 6.698ZM16.2042 4.527C16.1609 4.40567 16.1045 4.32767 16.0352 4.293C15.9659 4.24967 15.8705 4.228 15.7492 4.228H15.5802V3.461H16.0352C16.1912 3.461 16.3212 3.46967 16.4252 3.487C16.5379 3.50433 16.6332 3.539 16.7112 3.591C16.7892 3.643 16.8542 3.71667 16.9062 3.812C16.9582 3.90733 17.0102 4.033 17.0622 4.189L18.4012 8.336C18.4272 8.414 18.4489 8.49633 18.4662 8.583C18.4922 8.661 18.5139 8.73467 18.5312 8.804C18.5572 8.89067 18.5789 8.96867 18.5962 9.038H18.6222C18.6395 8.96867 18.6612 8.89067 18.6872 8.804C18.7045 8.73467 18.7262 8.661 18.7522 8.583C18.7782 8.49633 18.8042 8.414 18.8302 8.336L20.4292 3.487H21.3132L22.9122 8.336C22.9382 8.414 22.9642 8.49633 22.9902 8.583C23.0162 8.661 23.0379 8.73467 23.0552 8.804C23.0812 8.89067 23.1029 8.96867 23.1202 9.038H23.1462C23.1549 8.96 23.1722 8.882 23.1982 8.804C23.2155 8.73467 23.2329 8.661 23.2502 8.583C23.2762 8.505 23.3022 8.42267 23.3282 8.336L24.6802 4.189C24.7322 4.033 24.7842 3.90733 24.8362 3.812C24.8882 3.71667 24.9532 3.643 25.0312 3.591C25.1092 3.539 25.2002 3.50433 25.3042 3.487C25.4169 3.46967 25.5512 3.461 25.7072 3.461H26.1622V4.228H25.9802C25.8675 4.228 25.7722 4.24967 25.6942 4.293C25.6249 4.32767 25.5685 4.40567 25.5252 4.527L23.6532 10H22.6782L21.0792 5.346C21.0532 5.268 21.0272 5.19 21.0012 5.112C20.9752 5.02533 20.9535 4.94733 20.9362 4.878C20.9102 4.8 20.8929 4.722 20.8842 4.644H20.8582C20.8409 4.722 20.8192 4.8 20.7932 4.878C20.7759 4.94733 20.7542 5.02533 20.7282 5.112C20.7022 5.19 20.6762 5.268 20.6502 5.346L19.0642 10H18.0762L16.2042 4.527ZM26.685 6.737C26.685 6.19967 26.7717 5.71867 26.945 5.294C27.1184 4.86933 27.348 4.50967 27.634 4.215C27.9287 3.92033 28.271 3.695 28.661 3.539C29.051 3.383 29.467 3.305 29.909 3.305C30.3597 3.305 30.754 3.38733 31.092 3.552C31.4387 3.708 31.7247 3.92467 31.95 4.202C32.184 4.47933 32.3574 4.8 32.47 5.164C32.5914 5.528 32.652 5.91367 32.652 6.321C32.652 6.36433 32.6477 6.412 32.639 6.464C32.639 6.516 32.639 6.56367 32.639 6.607C32.6304 6.659 32.626 6.711 32.626 6.763H27.608C27.6167 7.179 27.6904 7.54733 27.829 7.868C27.9677 8.18867 28.1497 8.46167 28.375 8.687C28.609 8.90367 28.8777 9.07267 29.181 9.194C29.4844 9.30667 29.805 9.363 30.143 9.363C30.4464 9.363 30.715 9.324 30.949 9.246C31.1917 9.15933 31.3997 9.064 31.573 8.96C31.7724 8.84733 31.95 8.713 32.106 8.557L32.535 9.22C32.3357 9.39333 32.1147 9.54933 31.872 9.688C31.6554 9.80933 31.3997 9.91767 31.105 10.013C30.8104 10.1083 30.4767 10.156 30.104 10.156C29.6187 10.156 29.168 10.0737 28.752 9.909C28.336 9.73567 27.972 9.50167 27.66 9.207C27.3567 8.90367 27.1184 8.544 26.945 8.128C26.7717 7.70333 26.685 7.23967 26.685 6.737ZM31.742 6.061C31.7247 5.723 31.664 5.42833 31.56 5.177C31.4647 4.92567 31.3304 4.71767 31.157 4.553C30.9924 4.37967 30.8017 4.254 30.585 4.176C30.3684 4.08933 30.1387 4.046 29.896 4.046C29.6274 4.046 29.3674 4.08933 29.116 4.176C28.8734 4.26267 28.6524 4.39267 28.453 4.566C28.2537 4.73067 28.0804 4.93867 27.933 5.19C27.7944 5.44133 27.699 5.73167 27.647 6.061H31.742ZM34.4181 4.514C34.4181 4.32333 34.3228 4.228 34.1321 4.228H33.5861V3.461H34.4961C34.7734 3.461 34.9728 3.52167 35.0941 3.643C35.2241 3.75567 35.2891 3.942 35.2891 4.202V4.644C35.2891 4.71333 35.2848 4.77833 35.2761 4.839C35.2761 4.89967 35.2761 4.95167 35.2761 4.995C35.2674 5.047 35.2631 5.09467 35.2631 5.138H35.2891C35.4451 4.644 35.6964 4.23233 36.0431 3.903C36.3984 3.565 36.8361 3.396 37.3561 3.396C37.4341 3.396 37.5164 3.40467 37.6031 3.422C37.6378 3.43067 37.6724 3.435 37.7071 3.435V4.306C37.6724 4.306 37.6378 4.30167 37.6031 4.293C37.5684 4.293 37.5338 4.293 37.4991 4.293C37.4644 4.28433 37.4254 4.28 37.3821 4.28C36.9141 4.28 36.5154 4.44033 36.1861 4.761C35.8654 5.08167 35.6314 5.48467 35.4841 5.97C35.4148 6.178 35.3671 6.39033 35.3411 6.607C35.3151 6.82367 35.3021 7.036 35.3021 7.244V10H34.4181V4.514ZM38.5171 6.737C38.5171 6.19967 38.6037 5.71867 38.7771 5.294C38.9504 4.86933 39.1801 4.50967 39.4661 4.215C39.7607 3.92033 40.1031 3.695 40.4931 3.539C40.8831 3.383 41.2991 3.305 41.7411 3.305C42.1917 3.305 42.5861 3.38733 42.9241 3.552C43.2707 3.708 43.5567 3.92467 43.7821 4.202C44.0161 4.47933 44.1894 4.8 44.3021 5.164C44.4234 5.528 44.4841 5.91367 44.4841 6.321C44.4841 6.36433 44.4797 6.412 44.4711 6.464C44.4711 6.516 44.4711 6.56367 44.4711 6.607C44.4624 6.659 44.4581 6.711 44.4581 6.763H39.4401C39.4487 7.179 39.5224 7.54733 39.6611 7.868C39.7997 8.18867 39.9817 8.46167 40.2071 8.687C40.4411 8.90367 40.7097 9.07267 41.0131 9.194C41.3164 9.30667 41.6371 9.363 41.9751 9.363C42.2784 9.363 42.5471 9.324 42.7811 9.246C43.0237 9.15933 43.2317 9.064 43.4051 8.96C43.6044 8.84733 43.7821 8.713 43.9381 8.557L44.3671 9.22C44.1677 9.39333 43.9467 9.54933 43.7041 9.688C43.4874 9.80933 43.2317 9.91767 42.9371 10.013C42.6424 10.1083 42.3087 10.156 41.9361 10.156C41.4507 10.156 41.0001 10.0737 40.5841 9.909C40.1681 9.73567 39.8041 9.50167 39.4921 9.207C39.1887 8.90367 38.9504 8.544 38.7771 8.128C38.6037 7.70333 38.5171 7.23967 38.5171 6.737ZM43.5741 6.061C43.5567 5.723 43.4961 5.42833 43.3921 5.177C43.2967 4.92567 43.1624 4.71767 42.9891 4.553C42.8244 4.37967 42.6337 4.254 42.4171 4.176C42.2004 4.08933 41.9707 4.046 41.7281 4.046C41.4594 4.046 41.1994 4.08933 40.9481 4.176C40.7054 4.26267 40.4844 4.39267 40.2851 4.566C40.0857 4.73067 39.9124 4.93867 39.7651 5.19C39.6264 5.44133 39.5311 5.73167 39.4791 6.061H43.5741ZM45.6651 6.724C45.6651 6.204 45.7345 5.736 45.8731 5.32C46.0205 4.89533 46.2241 4.53567 46.4841 4.241C46.7441 3.93767 47.0518 3.708 47.4071 3.552C47.7711 3.38733 48.1698 3.305 48.6031 3.305C49.0018 3.305 49.3355 3.37 49.6041 3.5C49.8728 3.63 50.0938 3.76867 50.2671 3.916C50.4665 4.098 50.6225 4.30167 50.7351 4.527H50.7611C50.7525 4.48367 50.7481 4.436 50.7481 4.384C50.7395 4.34067 50.7351 4.28867 50.7351 4.228C50.7351 4.16733 50.7351 4.10233 50.7351 4.033V1.914C50.7351 1.72333 50.6398 1.628 50.4491 1.628H49.9031V0.861H50.8261C51.1035 0.861 51.3028 0.926 51.4241 1.056C51.5541 1.17733 51.6191 1.37667 51.6191 1.654V8.947C51.6191 9.13767 51.7145 9.233 51.9051 9.233H52.4511V10H51.5411C51.2638 10 51.0645 9.93933 50.9431 9.818C50.8218 9.69667 50.7611 9.51467 50.7611 9.272C50.7611 9.21133 50.7611 9.15933 50.7611 9.116C50.7611 9.064 50.7655 9.01633 50.7741 8.973C50.7741 8.92967 50.7785 8.89067 50.7871 8.856H50.7611C50.6485 9.09867 50.4881 9.31533 50.2801 9.506C50.1068 9.67067 49.8771 9.82233 49.5911 9.961C49.3051 10.091 48.9455 10.156 48.5121 10.156C48.0701 10.156 47.6715 10.0737 47.3161 9.909C46.9695 9.73567 46.6705 9.50167 46.4191 9.207C46.1765 8.90367 45.9901 8.544 45.8601 8.128C45.7301 7.70333 45.6651 7.23533 45.6651 6.724ZM48.6421 9.363C48.9108 9.363 49.1708 9.31533 49.4221 9.22C49.6821 9.116 49.9118 8.95567 50.1111 8.739C50.3105 8.52233 50.4665 8.24933 50.5791 7.92C50.7005 7.59067 50.7611 7.192 50.7611 6.724C50.7611 6.39467 50.7178 6.074 50.6311 5.762C50.5445 5.44133 50.4145 5.15967 50.2411 4.917C50.0765 4.66567 49.8598 4.46633 49.5911 4.319C49.3311 4.17167 49.0278 4.098 48.6811 4.098C48.3951 4.098 48.1221 4.15867 47.8621 4.28C47.6108 4.39267 47.3898 4.56167 47.1991 4.787C47.0085 5.01233 46.8568 5.28967 46.7441 5.619C46.6315 5.93967 46.5751 6.308 46.5751 6.724C46.5751 7.13133 46.6228 7.49967 46.7181 7.829C46.8221 8.14967 46.9651 8.42267 47.1471 8.648C47.3291 8.87333 47.5458 9.051 47.7971 9.181C48.0571 9.30233 48.3388 9.363 48.6421 9.363ZM57.3957 1.914C57.3957 1.72333 57.3004 1.628 57.1097 1.628H56.5637V0.861H57.4867C57.764 0.861 57.9634 0.926 58.0847 1.056C58.2147 1.17733 58.2797 1.37667 58.2797 1.654V4.02C58.2797 4.098 58.2754 4.17167 58.2667 4.241C58.2667 4.30167 58.2667 4.35367 58.2667 4.397C58.258 4.449 58.2537 4.501 58.2537 4.553H58.2797C58.3924 4.319 58.5527 4.111 58.7607 3.929C58.934 3.773 59.1594 3.63 59.4367 3.5C59.7227 3.37 60.078 3.305 60.5027 3.305C60.9447 3.305 61.339 3.39167 61.6857 3.565C62.041 3.72967 62.34 3.96367 62.5827 4.267C62.834 4.56167 63.0247 4.92133 63.1547 5.346C63.2847 5.77067 63.3497 6.23433 63.3497 6.737C63.3497 7.257 63.276 7.72933 63.1287 8.154C62.9814 8.57 62.7777 8.92967 62.5177 9.233C62.2577 9.52767 61.9457 9.75733 61.5817 9.922C61.2177 10.078 60.8234 10.156 60.3987 10.156C60.0087 10.156 59.675 10.091 59.3977 9.961C59.129 9.831 58.908 9.688 58.7347 9.532C58.5354 9.35 58.375 9.13767 58.2537 8.895H58.2277C58.2277 8.947 58.232 8.999 58.2407 9.051C58.2407 9.09433 58.2407 9.15067 58.2407 9.22C58.2494 9.28067 58.2537 9.35 58.2537 9.428V10H57.3957V1.914ZM58.2537 6.75C58.2537 7.07933 58.297 7.4 58.3837 7.712C58.4704 8.024 58.596 8.30567 58.7607 8.557C58.934 8.79967 59.1507 8.999 59.4107 9.155C59.6707 9.30233 59.9784 9.376 60.3337 9.376C60.6197 9.376 60.8884 9.31967 61.1397 9.207C61.3997 9.08567 61.625 8.91233 61.8157 8.687C62.0064 8.453 62.158 8.17567 62.2707 7.855C62.3834 7.52567 62.4397 7.153 62.4397 6.737C62.4397 6.33833 62.3877 5.97867 62.2837 5.658C62.1797 5.32867 62.0367 5.05133 61.8547 4.826C61.6727 4.60067 61.456 4.42733 61.2047 4.306C60.9534 4.176 60.676 4.111 60.3727 4.111C60.0954 4.111 59.831 4.163 59.5797 4.267C59.3284 4.36233 59.103 4.51833 58.9037 4.735C58.7044 4.95167 58.544 5.22467 58.4227 5.554C58.31 5.88333 58.2537 6.282 58.2537 6.75ZM64.2886 11.443C64.2886 11.443 64.3102 11.469 64.3536 11.521C64.4056 11.573 64.4749 11.6293 64.5616 11.69C64.6482 11.7507 64.7522 11.807 64.8736 11.859C64.9949 11.911 65.1249 11.937 65.2636 11.937C65.5496 11.937 65.7922 11.833 65.9916 11.625C66.1909 11.4257 66.3512 11.1743 66.4726 10.871L66.8626 9.974L64.5616 4.527C64.5096 4.40567 64.4489 4.32767 64.3796 4.293C64.3189 4.24967 64.2279 4.228 64.1066 4.228H63.9766V3.461H64.3796C64.5269 3.461 64.6482 3.474 64.7436 3.5C64.8476 3.51733 64.9342 3.552 65.0036 3.604C65.0816 3.656 65.1466 3.72967 65.1986 3.825C65.2592 3.91167 65.3199 4.02867 65.3806 4.176L67.0576 8.258C67.0922 8.34467 67.1226 8.427 67.1486 8.505C67.1832 8.583 67.2092 8.65667 67.2266 8.726C67.2526 8.804 67.2742 8.882 67.2916 8.96H67.3176C67.3349 8.882 67.3566 8.804 67.3826 8.726C67.3999 8.65667 67.4216 8.583 67.4476 8.505C67.4736 8.427 67.5039 8.34467 67.5386 8.258L69.1506 4.176C69.2026 4.02867 69.2546 3.91167 69.3066 3.825C69.3672 3.72967 69.4366 3.656 69.5146 3.604C69.5926 3.552 69.6836 3.51733 69.7876 3.5C69.8916 3.474 70.0172 3.461 70.1646 3.461H70.5676V4.228H70.4376C70.3162 4.228 70.2209 4.24967 70.1516 4.293C70.0822 4.32767 70.0259 4.40567 69.9826 4.527L67.1616 11.365C66.9882 11.781 66.7412 12.1103 66.4206 12.353C66.1086 12.6043 65.7316 12.73 65.2896 12.73C65.0642 12.73 64.8606 12.6953 64.6786 12.626C64.5052 12.5653 64.3579 12.496 64.2366 12.418C64.0892 12.3227 63.9679 12.2143 63.8726 12.093L64.2886 11.443Z" fill="#373F48"/>
</svg>
