<svg width="11" height="23" viewBox="0 0 11 23" fill="none" xmlns="http://www.w3.org/2000/svg">
<path d="M9.77 0.0242814H7.41C5.99 -0.115719 4.58 0.35432 3.52 1.31432C2.66 2.38432 2.24 3.73436 2.34 5.10436V6.6942C2.34 7.1142 1.99999 7.45446 1.57999 7.45446H0.759995C0.339995 7.45446 0 7.79422 0 8.21422V10.5941C0 11.0141 0.339995 11.3544 0.759995 11.3544H1.57999C1.99999 11.3544 2.34 11.6941 2.34 12.1141V21.9242C2.34 22.3442 2.68 22.6844 3.1 22.6844H6.27C6.69 22.6844 7.03 22.3442 7.03 21.9242V12.1141C7.03 11.6941 7.37 11.3544 7.79 11.3544H9.39C9.82 11.3444 10.18 11.0241 10.23 10.5941L10.48 8.20446C10.53 7.83446 10.27 7.50446 9.9 7.45446C9.87 7.45446 9.83 7.4442 9.8 7.4442H7.79C7.37 7.4442 7.03 7.10444 7.03 6.68444V5.48424C7.03 5.25424 7.04 5.02407 7.07 4.80407C7.1 4.63407 7.15999 4.47409 7.25999 4.32409C7.36999 4.16409 7.53 4.04426 7.72 4.00426C8 3.93426 8.28999 3.90442 8.57999 3.91442H9.78C10.2 3.91442 10.54 3.57416 10.54 3.15416V0.764027C10.53 0.364027 10.19 0.0242814 9.77 0.0242814Z" fill="white"/>
</svg>
