<svg width="24" height="24" viewBox="0 0 24 24" fill="none" xmlns="http://www.w3.org/2000/svg">
<path d="M16.08 0H7.31C3.27 0 0 3.27006 0 7.31006V16.0801C0 20.1201 3.27 23.3901 7.31 23.3901H16.08C20.12 23.3901 23.39 20.1201 23.39 16.0801V7.31006C23.39 3.28006 20.11 0 16.08 0ZM21.2 16.0801C21.2 18.9101 18.91 21.2002 16.08 21.2002H7.31C4.49 21.2002 2.2 18.9101 2.19 16.0801V7.31006C2.19 4.49006 4.48 2.19994 7.31 2.18994H16.08C18.91 2.18994 21.2 4.48006 21.2 7.31006V16.0801Z" fill="white"/>
<path d="M11.6869 5.84717C8.45691 5.84717 5.83691 8.46727 5.83691 11.6973C5.83691 14.9273 8.45691 17.5474 11.6869 17.5474C14.9169 17.5474 17.5369 14.9273 17.5369 11.6973C17.5369 8.46727 14.9169 5.84717 11.6869 5.84717ZM11.6869 15.3472C9.66691 15.3472 8.03692 13.7073 8.03692 11.6973C8.03692 9.68727 9.67691 8.04736 11.6869 8.04736C13.7069 8.04736 15.3369 9.68727 15.3369 11.6973C15.3369 13.7173 13.7069 15.3472 11.6869 15.3472Z" fill="white"/>
<path d="M17.9812 6.18896C18.412 6.18896 18.7612 5.83947 18.7612 5.40869C18.7612 4.97791 18.412 4.62891 17.9812 4.62891C17.5504 4.62891 17.2012 4.97791 17.2012 5.40869C17.2012 5.83947 17.5504 6.18896 17.9812 6.18896Z" fill="white"/>
</svg>
