<svg width="114" height="104" viewBox="0 0 114 104" fill="none" xmlns="http://www.w3.org/2000/svg">
<path d="M31.0217 0.17981H30.8772C29.3604 0.17981 28.1326 1.40215 28.1326 2.9121V58.0252C28.1326 59.5351 29.3604 60.7575 30.8772 60.7575H31.0217C32.5384 60.7575 33.7663 59.5351 33.7663 58.0252V2.9121C33.7663 1.40215 32.5384 0.17981 31.0217 0.17981Z" fill="black"/>
<path d="M39.4361 3.9187H39.2916C37.7749 3.9187 36.547 5.14104 36.547 6.65099V58.0252C36.547 59.5351 37.7749 60.7575 39.2916 60.7575H39.4361C40.9529 60.7575 42.1808 59.5351 42.1808 58.0252V6.65099C42.1808 5.14104 40.9529 3.9187 39.4361 3.9187Z" fill="black"/>
<path d="M47.8868 5.7522H47.7423C46.2255 5.7522 44.9977 6.97454 44.9977 8.48448V43.1054C44.9977 44.6154 46.2255 45.8377 47.7423 45.8377H47.8868C49.4036 45.8377 50.6314 44.6154 50.6314 43.1054V8.48448C50.6314 7.01049 49.3674 5.7522 47.8868 5.7522Z" fill="black"/>
<path d="M56.7348 9.0238H56.5903C55.0736 9.0238 53.8457 10.2461 53.8457 11.7561V48.2105C53.8457 49.7205 55.0736 50.9428 56.5903 50.9428H56.7348C58.2516 50.9428 59.4795 49.7205 59.4795 48.2105V11.7561C59.4795 10.2461 58.2516 9.0238 56.7348 9.0238Z" fill="#EA8823"/>
<path d="M65.655 5.7522H65.5105C63.9937 5.7522 62.7659 6.97454 62.7659 8.48448V43.1054C62.7659 44.6154 63.9937 45.8377 65.5105 45.8377H65.655C67.1718 45.8377 68.3996 44.6154 68.3996 43.1054V8.48448C68.3635 7.01049 67.1356 5.7522 65.655 5.7522Z" fill="#EA8823"/>
<path d="M74.0694 3.9187H73.9249C72.4082 3.9187 71.1803 5.14104 71.1803 6.65099V58.0252C71.1803 59.5351 72.4082 60.7575 73.9249 60.7575H74.0694C75.5862 60.7575 76.814 59.5351 76.814 58.0252V6.61504C76.814 5.14104 75.5862 3.9187 74.0694 3.9187Z" fill="#EA8823"/>
<path d="M82.52 0.17981H82.3755C80.8587 0.17981 79.6309 1.40215 79.6309 2.9121V57.0904C79.6309 58.6004 80.8587 59.8227 82.3755 59.8227H82.52C84.0368 59.8227 85.2646 58.6004 85.2646 57.0904V2.9121C85.2285 1.40215 84.0006 0.17981 82.52 0.17981Z" fill="#EA8823"/>
<path d="M23.0767 73.0887H21.9572C21.7405 73.0887 21.5961 73.0887 21.5961 73.0887H21.5238L21.271 73.9875C21.0905 74.5987 19.1042 81.1418 18.0569 84.4853C17.443 86.4985 16.7929 88.5118 16.1068 90.7048C15.9623 90.2374 15.854 89.9498 15.7817 89.6982C14.265 84.5212 12.7121 79.3442 11.2314 74.1673L10.9425 73.1247H9.3896C8.84789 73.1247 8.27007 73.1247 7.72837 73.1247C5.16429 73.1247 2.60021 73.1247 0.0361328 73.1606C0.0361328 82.9753 0.0361328 92.79 0.0361328 102.569C1.98628 102.569 3.90031 102.569 5.92268 102.569C5.92268 94.6235 5.92268 86.7502 5.92268 78.9128C6.13936 79.0207 6.21159 79.2004 6.28382 79.3442C8.27007 85.9593 10.2563 92.6102 12.2426 99.2252L12.676 100.663L13.2538 102.569H18.0208L18.2375 101.814L19.032 99.2252C21.0182 92.6462 23.0406 86.0671 25.063 79.4881C25.1352 79.2364 25.2435 78.9847 25.3158 78.7331C25.388 78.769 25.4602 78.769 25.5325 78.805C25.5325 86.6783 25.5325 94.5875 25.5325 102.497C27.8799 102.497 30.1189 102.497 32.3941 102.497C32.3941 92.6821 32.3941 82.9394 32.3941 73.1606C32.1052 73.1606 31.8524 73.1247 31.6357 73.1247C29.3966 73.0887 25.2797 73.0887 23.0767 73.0887Z" fill="black"/>
<path d="M71.7582 97.895C69.4469 97.895 68.9413 97.3917 68.9052 95.1268C68.9052 92.8618 68.9052 90.6329 68.9052 88.3679C68.9052 87.5051 68.9052 86.6423 68.9052 85.6716C70.5303 85.6716 72.0471 85.6716 73.5639 85.6716C73.5639 83.946 73.5639 82.3641 73.5639 80.6384C71.9749 80.6384 70.4581 80.6384 68.8691 80.6384C68.8691 78.3376 68.8691 76.1086 68.8691 73.8796C66.9912 74.0234 65.2216 74.1672 63.3798 74.3111C63.1992 76.4322 63.0186 78.5173 62.802 80.6744C61.5019 80.6744 60.274 80.6744 59.01 80.6744C59.01 82.4001 59.01 84.0538 59.01 85.7435C60.2018 85.7435 61.3213 85.7435 62.5131 85.7435C62.5131 86.139 62.5131 86.4985 62.5131 86.822C62.5131 90.1295 62.4769 93.437 62.5131 96.7446C62.5492 99.9082 63.6326 101.706 65.98 102.425C68.5802 103.216 71.2165 103.072 73.8889 102.497C73.8889 100.915 73.8889 99.4049 73.8889 97.895C73.1305 97.895 72.4443 97.895 71.7582 97.895Z" fill="black"/>
<path d="M87.7565 97.8951C85.8786 97.8591 85.3008 97.3198 85.2647 95.4144C85.2286 93.4012 85.2647 91.4239 85.2647 89.4106C85.2647 88.1883 85.2647 87.0019 85.2647 85.6717C86.8898 85.6717 88.4066 85.6717 89.9233 85.6717C89.9233 83.982 89.9233 82.4001 89.9233 80.6385C88.3343 80.6385 86.8176 80.6385 85.1924 80.6385C85.1924 78.3376 85.1924 76.1087 85.1924 73.8438C83.3145 73.9876 81.5449 74.1314 79.7031 74.2752C79.5226 76.3963 79.3059 78.5174 79.1253 80.6745C77.7891 80.6745 76.5974 80.6745 75.3334 80.6745C75.3334 82.4001 75.3334 84.0179 75.3334 85.7076C76.5251 85.7076 77.6447 85.7076 78.8364 85.7076C78.8364 86.1031 78.8364 86.4626 78.8364 86.7862C78.8364 90.0937 78.8003 93.4012 78.8725 96.7087C78.9086 98.7938 79.2337 100.915 81.4005 101.994C84.2535 103.432 87.2509 103.072 90.2123 102.497C90.2123 100.843 90.2123 99.3331 90.2123 97.8591C89.3816 97.8951 88.5871 97.8951 87.7565 97.8951Z" fill="black"/>
<path d="M57.3126 92.718C57.5654 91.2081 57.3487 89.1948 56.6625 87.2175C55.4346 83.5865 52.9428 81.2496 49.1508 80.5306C45.2506 79.8116 41.7836 80.7463 39.1834 83.91C36.6916 86.9299 36.1138 90.4891 36.7277 94.228C37.3777 98.2545 39.5446 101.167 43.5171 102.389C47.5618 103.647 51.3899 103.18 54.604 100.16C55.5791 99.2252 56.4097 98.1467 56.8792 96.8884C57.0959 96.5289 57.3487 95.0908 57.3487 95.0908H51.4621C51.0288 97.8231 48.6091 98.8657 46.5145 98.3983C44.1671 97.895 42.8309 95.4144 43.4449 92.754C48.0674 92.718 52.69 92.718 57.3126 92.718ZM47.2729 84.665C49.4759 84.665 51.2454 86.5704 51.2454 88.9432H43.3365C43.3365 86.5704 45.1061 84.665 47.2729 84.665Z" fill="black"/>
<path d="M112.892 94.5875C112.856 91.8552 112.892 89.0869 112.819 86.3547C112.747 83.9819 111.519 82.2562 109.389 81.4294C107.836 80.8182 106.138 80.4946 104.477 80.3508C101.805 80.1351 99.1685 80.5665 96.785 82.0046C95.196 82.9753 94.1487 84.2695 93.7153 86.0311C93.5708 86.4625 93.4625 87.6489 93.4625 87.6489H99.3129C100.18 85.0964 101.841 84.0897 104.224 84.5931C105.922 84.9526 106.536 86.2109 106.319 88.9072C104.658 89.0869 103.033 89.2308 101.444 89.4465C99.1685 89.7341 97.0378 90.3093 95.196 91.7473C92.0179 94.228 91.9818 99.4409 95.1598 101.67C97.7961 103.539 102.238 103.395 104.766 101.31C105.452 100.735 106.066 100.124 106.68 99.5487C106.788 100.483 106.897 101.49 107.005 102.497C109.172 102.497 111.194 102.497 113.036 102.497C112.964 99.8363 112.892 97.2119 112.892 94.5875ZM105.597 97.0681C105.019 98.0388 104.224 98.6499 103.105 98.9016C101.733 99.2252 100.469 98.7218 99.8907 97.6074C99.2407 96.3491 99.5296 94.7672 100.613 93.8684C101.949 92.7899 103.574 92.5023 105.236 92.2147C105.561 92.1428 105.922 92.1428 106.355 92.1068C106.427 93.8684 106.5 95.5581 105.597 97.0681Z" fill="black"/>
</svg>
