<svg width="524" height="556" viewBox="0 0 524 556" fill="none" xmlns="http://www.w3.org/2000/svg">
<path d="M26.498 0H25.1731C11.2617 0 0 11.219 0 25.0777V530.922C0 544.781 11.2617 556 25.1731 556H26.498C40.4095 556 51.6712 544.781 51.6712 530.922V25.0777C51.6712 11.219 40.4095 0 26.498 0Z" fill="#6C7074" fill-opacity="0.2"/>
<path d="M103.673 34.3167H102.348C88.4366 34.3167 77.1749 45.5357 77.1749 59.3944V530.922C77.1749 544.781 88.4366 556 102.348 556H103.673C117.584 556 128.846 544.781 128.846 530.922V59.3944C128.846 45.5357 117.584 34.3167 103.673 34.3167Z" fill="#6C7074" fill-opacity="0.2"/>
<path d="M181.18 51.1453H179.855C165.944 51.1453 154.682 62.3643 154.682 76.2231V393.984C154.682 407.843 165.944 419.062 179.855 419.062H181.18C195.092 419.062 206.353 407.843 206.353 393.984V76.2231C206.353 62.6943 194.761 51.1453 181.18 51.1453Z" fill="#6C7074" fill-opacity="0.2"/>
<path d="M262.332 81.1728H261.007C247.096 81.1728 235.834 92.3918 235.834 106.251V440.841C235.834 454.699 247.096 465.918 261.007 465.918H262.332C276.244 465.918 287.505 454.699 287.505 440.841V106.251C287.505 92.3918 276.244 81.1728 262.332 81.1728Z" fill="#6C7074" fill-opacity="0.2"/>
<path d="M344.146 51.1453H342.821C328.909 51.1453 317.647 62.3643 317.647 76.2231V393.984C317.647 407.843 328.909 419.062 342.821 419.062H344.146C358.057 419.062 369.319 407.843 369.319 393.984V76.2231C368.987 62.6943 357.726 51.1453 344.146 51.1453Z" fill="#6C7074" fill-opacity="0.2"/>
<path d="M421.32 34.3167H419.995C406.084 34.3167 394.822 45.5357 394.822 59.3944V530.922C394.822 544.781 406.084 556 419.995 556H421.32C435.232 556 446.493 544.781 446.493 530.922V59.0644C446.493 45.5357 435.232 34.3167 421.32 34.3167Z" fill="#6C7074" fill-opacity="0.2"/>
<path d="M498.827 0H497.502C483.59 0 472.329 11.219 472.329 25.0777V522.343C472.329 536.202 483.59 547.421 497.502 547.421H498.827C512.738 547.421 524 536.202 524 522.343V25.0777C523.669 11.219 512.407 0 498.827 0Z" fill="#6C7074" fill-opacity="0.2"/>
</svg>
